<svg width="82" height="25" viewBox="0 0 82 25" fill="none" xmlns="http://www.w3.org/2000/svg">
<path d="M19.3944 3.85714C21 6 21.2944 6.76914 21.7104 9.37314L22 10.5C18.5 10 20.8039 18.072 19 18.5C17.1961 18.928 17.5629 19.2117 16.5824 19.3891C14.7856 19.7143 11.9264 18.9611 11.9264 18.9611C11.8171 18.9638 11.7091 18.9771 11.6024 19.0011C11.1704 19.0971 11.1184 19.2265 11.4464 19.3891C11.5371 19.4318 11.6344 19.4531 11.7384 19.4531C13.1784 19.4371 15.3144 19.3771 16.5824 20.0411C16.7397 20.1238 16.7557 20.2265 16.6304 20.3491C15.3024 21.6611 11.1304 21.1131 8.6664 20.8531C7.9384 20.7785 7.92106 20.8558 8.6144 21.0851L9.8424 21.4931C9.91707 21.5171 9.94106 21.5665 9.9144 21.6411C9.90373 21.6785 9.89173 21.7158 9.8784 21.7531C9.8704 21.7771 9.85307 21.7905 9.8264 21.7931C9.0864 21.8331 6.4904 21.7931 6.7864 20.5891C6.87973 20.1971 6.72773 20.0318 6.3304 20.0931C5.2984 20.2478 4.5664 20.0611 4.1344 19.5331C3.88107 19.2185 3.9464 18.9918 4.3304 18.8531C4.46107 18.8051 4.5224 18.7118 4.5144 18.5731C4.51173 18.5305 4.5104 18.4878 4.5104 18.4451C4.5104 18.3438 4.46107 18.3038 4.3624 18.3251C3.0424 18.6265 2.18373 18.1291 1.7864 16.8331C1.7544 16.7291 1.78507 16.6465 1.8784 16.5851L2.7784 16.0051C3.0424 15.8345 3.0184 15.7611 2.7064 15.7851L1.3744 15.8811C1.2464 15.8891 1.1424 15.8425 1.0624 15.7411C0.0463986 14.4425 0.169065 13.3718 1.4304 12.5291C1.53973 12.4545 1.52907 12.4078 1.3984 12.3891L0.230399 12.2291C0.0837324 12.2105 0.010399 12.1278 0.010399 11.9811C-0.017601 10.1931 -0.0456012 8.40114 0.738399 6.76914C4.3984 -0.866859 13.5624 -2.33086 19.3944 3.85714ZM15.188 13.7275C15.1913 13.6746 15.1734 13.6225 15.1383 13.5828C15.1032 13.543 15.0537 13.5188 15.0008 13.5155L12.6536 13.3675C12.6007 13.3643 12.5486 13.3821 12.5088 13.4172C12.4691 13.4523 12.4449 13.5018 12.4416 13.5547L12.4328 13.6907C12.4295 13.7437 12.4474 13.7957 12.4825 13.8355C12.5176 13.8753 12.5671 13.8994 12.62 13.9027L14.9672 14.0507C15.0201 14.054 15.0722 14.0361 15.112 14.001C15.1517 13.9659 15.1759 13.9165 15.1792 13.8635L15.188 13.7275Z" fill="#FCBA48"/>
<path d="M13.04 19.36C12.832 18.944 12.64 18.368 12.464 17.632C12.304 16.88 12.168 16.096 12.056 15.28C11.96 14.464 11.912 13.736 11.912 13.096H14.312C14.568 14.456 15.072 15.52 15.824 16.288C16.592 17.056 17.48 17.44 18.488 17.44C18.984 17.44 19.368 17.344 19.64 17.152C19.928 16.944 20.136 16.696 20.264 16.408C20.392 16.12 20.456 15.848 20.456 15.592C20.456 15.064 20.28 14.608 19.928 14.224C19.576 13.84 19.128 13.496 18.584 13.192C18.056 12.872 17.52 12.584 16.976 12.328C15.568 11.64 14.456 10.856 13.64 9.976C12.824 9.08 12.416 7.96 12.416 6.616C12.416 5.64 12.656 4.816 13.136 4.144C13.616 3.456 14.256 2.928 15.056 2.56C15.872 2.192 16.784 2.008 17.792 2.008C18.256 2.008 18.8 2.056 19.424 2.152C20.064 2.248 20.584 2.408 20.984 2.632L23.024 2.008C23.248 2.376 23.4 2.864 23.48 3.472C23.576 4.064 23.632 4.68 23.648 5.32C23.68 5.96 23.696 6.544 23.696 7.072V7.432H21.704C21.368 6.072 20.896 5.152 20.288 4.672C19.68 4.176 19.024 3.928 18.32 3.928C17.664 3.928 17.176 4.12 16.856 4.504C16.552 4.872 16.4 5.336 16.4 5.896C16.4 6.408 16.536 6.84 16.808 7.192C17.096 7.544 17.464 7.856 17.912 8.128C18.36 8.384 18.832 8.64 19.328 8.896C19.872 9.152 20.44 9.448 21.032 9.784C21.624 10.104 22.168 10.48 22.664 10.912C23.176 11.344 23.584 11.856 23.888 12.448C24.208 13.04 24.368 13.736 24.368 14.536C24.368 15.416 24.144 16.224 23.696 16.96C23.248 17.68 22.608 18.264 21.776 18.712C20.944 19.144 19.936 19.36 18.752 19.36C18.208 19.36 17.608 19.296 16.952 19.168C16.312 19.056 15.624 18.848 14.888 18.544L13.04 19.36Z" fill="black"/>
<path d="M30.0824 19.168C28.9624 19.168 28.0904 18.824 27.4664 18.136C26.8424 17.448 26.5304 16.52 26.5304 15.352V8.752C26.5304 8.48 26.4264 8.288 26.2184 8.176C26.0104 8.064 25.7224 8.008 25.3544 8.008V6.952C25.5624 6.776 25.9944 6.592 26.6504 6.4C27.3224 6.192 28.0744 6.088 28.9064 6.088C29.5304 6.088 29.9384 6.16 30.1304 6.304C30.3384 6.448 30.4424 6.8 30.4424 7.36V15.424C30.4424 15.904 30.5224 16.272 30.6824 16.528C30.8424 16.784 31.1224 16.912 31.5224 16.912C31.8584 16.912 32.1784 16.808 32.4824 16.6C32.8024 16.392 33.0664 16.152 33.2744 15.88V8.752C33.2744 8.48 33.1544 8.288 32.9144 8.176C32.6744 8.064 32.3464 8.008 31.9304 8.008V6.952C32.1544 6.776 32.5944 6.592 33.2504 6.4C33.9064 6.192 34.6824 6.088 35.5784 6.088C36.2024 6.088 36.6264 6.16 36.8504 6.304C37.0744 6.448 37.1864 6.8 37.1864 7.36V16.192C37.1864 16.576 37.2824 16.896 37.4744 17.152C37.6824 17.408 37.9704 17.552 38.3384 17.584V18.256C38.0824 18.56 37.6744 18.792 37.1144 18.952C36.5704 19.096 36.0424 19.168 35.5304 19.168C35.0024 19.168 34.5384 19.032 34.1384 18.76C33.7544 18.472 33.4984 18.064 33.3704 17.536C32.5864 18.624 31.4904 19.168 30.0824 19.168Z" fill="black"/>
<path d="M39.9528 19C39.7768 18.824 39.6328 18.632 39.5208 18.424C39.4248 18.216 39.3768 17.984 39.3768 17.728C39.8568 17.728 40.2008 17.624 40.4088 17.416C40.6168 17.208 40.7208 16.872 40.7208 16.408V9.4C40.7208 8.984 40.6008 8.68 40.3608 8.488C40.1368 8.296 39.7208 8.2 39.1128 8.2V7.12C39.4808 6.912 39.9448 6.72 40.5048 6.544C41.0808 6.368 41.6328 6.232 42.1608 6.136C42.7048 6.024 43.1208 5.968 43.4088 5.968C43.7448 5.968 44.0168 6.072 44.2248 6.28C44.4488 6.488 44.5768 6.936 44.6088 7.624C45.0088 7.128 45.5128 6.728 46.1208 6.424C46.7448 6.12 47.4648 5.968 48.2808 5.968C49.4008 5.968 50.2408 6.256 50.8008 6.832C51.3768 7.392 51.6648 8.352 51.6648 9.712V16.264C51.6648 17.048 52.0488 17.512 52.8168 17.656L52.8408 18.352C52.6808 18.512 52.4248 18.656 52.0728 18.784C51.7208 18.896 51.3368 18.984 50.9208 19.048C50.5208 19.112 50.1448 19.144 49.7928 19.144C49.1048 19.144 48.5928 19.016 48.2568 18.76C47.9368 18.504 47.7768 18.096 47.7768 17.536V10.048C47.7768 9.392 47.6328 8.936 47.3448 8.68C47.0568 8.424 46.7048 8.296 46.2888 8.296C45.6328 8.296 45.0808 8.56 44.6328 9.088V16.408C44.6328 16.872 44.7288 17.208 44.9208 17.416C45.1288 17.624 45.4728 17.728 45.9528 17.728C45.9528 18.208 45.7688 18.632 45.4008 19H39.9528Z" fill="black"/>
<path d="M54.5778 19C54.4018 18.824 54.2578 18.632 54.1458 18.424C54.0498 18.216 54.0018 17.984 54.0018 17.728C54.4818 17.728 54.8258 17.624 55.0338 17.416C55.2418 17.208 55.3458 16.872 55.3458 16.408V9.4C55.3458 8.984 55.2258 8.68 54.9858 8.488C54.7618 8.296 54.3458 8.2 53.7378 8.2V7.12C54.1058 6.912 54.5698 6.72 55.1298 6.544C55.7058 6.368 56.2578 6.232 56.7858 6.136C57.3298 6.024 57.7458 5.968 58.0338 5.968C58.3698 5.968 58.6418 6.072 58.8498 6.28C59.0738 6.488 59.2018 6.936 59.2338 7.624C59.6338 7.128 60.1378 6.728 60.7458 6.424C61.3698 6.12 62.0898 5.968 62.9058 5.968C64.0258 5.968 64.8658 6.256 65.4258 6.832C66.0018 7.392 66.2898 8.352 66.2898 9.712V16.264C66.2898 17.048 66.6738 17.512 67.4418 17.656L67.4658 18.352C67.3058 18.512 67.0498 18.656 66.6978 18.784C66.3458 18.896 65.9618 18.984 65.5458 19.048C65.1458 19.112 64.7698 19.144 64.4178 19.144C63.7298 19.144 63.2178 19.016 62.8818 18.76C62.5618 18.504 62.4018 18.096 62.4018 17.536V10.048C62.4018 9.392 62.2578 8.936 61.9698 8.68C61.6818 8.424 61.3298 8.296 60.9138 8.296C60.2578 8.296 59.7058 8.56 59.2578 9.088V16.408C59.2578 16.872 59.3538 17.208 59.5458 17.416C59.7538 17.624 60.0978 17.728 60.5778 17.728C60.5778 18.208 60.3938 18.632 60.0258 19H54.5778Z" fill="black"/>
<path d="M71.489 24.064C70.497 24.064 69.753 23.856 69.257 23.44C68.761 23.024 68.513 22.528 68.513 21.952C68.513 21.568 68.601 21.224 68.777 20.92C68.969 20.616 69.209 20.4 69.497 20.272C69.929 20.784 70.569 21.04 71.417 21.04C71.897 21.04 72.385 20.8 72.881 20.32C73.393 19.856 73.817 19.12 74.153 18.112H72.185L68.489 9.136C68.297 8.672 68.129 8.32 67.985 8.08C67.841 7.84 67.521 7.72 67.025 7.72C67.025 7.448 67.065 7.184 67.145 6.928C67.225 6.672 67.353 6.448 67.529 6.256H73.193C73.577 6.672 73.769 7.16 73.769 7.72C73.369 7.72 73.081 7.824 72.905 8.032C72.745 8.24 72.665 8.504 72.665 8.824C72.665 8.936 72.673 9.064 72.689 9.208C72.705 9.336 72.737 9.472 72.785 9.616L75.017 16.12L76.601 9.304C76.649 9.08 76.673 8.888 76.673 8.728C76.673 8.056 76.281 7.72 75.497 7.72C75.497 7.448 75.529 7.184 75.593 6.928C75.657 6.672 75.777 6.448 75.953 6.256H80.585C80.761 6.448 80.881 6.672 80.945 6.928C81.025 7.184 81.065 7.448 81.065 7.72C80.665 7.72 80.353 7.816 80.129 8.008C79.921 8.2 79.745 8.52 79.601 8.968L76.865 17.488C76.161 19.76 75.401 21.424 74.585 22.48C73.785 23.536 72.753 24.064 71.489 24.064Z" fill="black"/>
</svg>
