<svg width="289" height="327" viewBox="0 0 289 327" fill="none" xmlns="http://www.w3.org/2000/svg">
<g clip-path="url(#clip0_35_126)">
<path d="M265 195C265 161.863 238.137 135 205 135L25 135C25 168.137 51.8629 195 85 195L265 195Z" fill="#FFB5B5"/>
<path d="M94.8289 177.402C93.1134 177.387 91.2869 177.83 89.6755 178.404C81.8313 181.134 74.3944 188.178 70.7305 195.944C72.0848 194.661 73.4144 193.611 75.0201 192.689L77.6234 191.638L77.9004 191.546C79.4683 191.077 81.323 190.943 82.9037 191.429C84.9823 192.069 85.8634 193.237 86.8571 195.16C90.13 189.067 93.5357 183.173 97.7627 177.766L94.8289 177.402Z" fill="url(#paint0_linear_35_126)"/>
<path d="M35.837 32.9769C34.0102 32.8869 32.0863 33.0605 30.2567 33.1553C23.2843 33.5535 16.5245 34.7282 10.0381 37.3777C11.7793 37.0045 13.5172 36.8037 15.3137 36.7844C25.7238 36.6756 35.5196 41.5823 42.8255 48.8083C45.888 51.8366 48.572 55.4013 49.762 59.5972C52.7361 70.1855 44.6514 83.8078 38.5617 91.974C34.1178 97.9262 28.9694 103.349 24.488 109.291C21.8964 112.735 19.3566 116.706 17.5536 120.638C15.3181 125.492 14.5366 130.368 14.5528 135.671C15.3615 132.27 16.4704 129.197 18.3857 126.243C21.5318 121.38 25.9352 118.211 31.5971 116.994C24.7632 130.995 18.7738 145.85 17.8036 161.577C17.4779 166.934 17.6381 172.402 18.5158 177.697C20.327 188.653 24.8179 199.052 30.7792 208.365C33.2168 212.164 35.962 215.96 38.968 219.323C35.4217 212.899 32.2877 206.589 30.6213 199.378C27.34 185.238 31.3483 170.165 38.8688 158.012C42.2661 152.532 48.0744 146.3 54.5579 144.783L55.456 145.721C56.4115 146.816 57.0416 148.284 57.5665 149.623C59.5615 154.86 59.9513 160.956 60.0914 166.51C60.1347 168.058 60.2542 169.652 60.1618 171.195C60.809 169.192 61.2683 167.126 61.9272 165.111C64.316 157.752 68.0855 150.665 74.1441 145.7C80.3566 140.616 87.6289 138.64 95.5503 139.447C94.8465 141.071 93.8907 142.585 93.2128 144.232C91.076 149.326 90.4577 154.502 89.8528 159.935C90.3771 158.887 90.8627 157.803 91.4878 156.799C93.6264 153.403 96.6538 150.526 100.241 148.716C105.304 146.153 110.703 145.799 116.077 147.588C123.28 149.983 129.673 156.457 132.974 163.14C134.777 166.799 135.53 170.403 135.556 174.474C135.573 175.987 135.502 177.713 135.011 179.154C135.479 175.118 134.755 170.418 133.268 166.668C130.49 159.626 124.757 154.238 117.88 151.248C113.502 151.819 108.991 152.68 104.961 154.513C107.012 154.161 108.935 153.741 111.027 153.965C112.749 154.159 114.412 154.897 115.482 156.294C116.566 157.739 116.288 159.021 116.041 160.67L115.843 160.656C104.123 159.946 91.6881 164.467 82.8905 172.17C83.8137 171.692 84.7595 171.175 85.7518 170.841C89.5132 169.539 94.1362 168.942 97.8174 170.843C99.7403 171.839 100.347 173.333 100.965 175.27C103.216 172.631 105.693 170.287 108.256 167.964C112.16 164.415 116.094 161.221 120.632 158.5C121.718 157.853 123.242 156.839 124.486 156.615C124.864 156.546 124.893 156.631 125.176 156.862C124.714 157.686 121.413 159.567 120.416 160.271C119.146 161.186 117.903 162.161 116.686 163.135C101.564 175.19 88.7422 191.248 83.3389 210.047C80.5241 219.877 79.9919 229.564 82.063 239.596C82.9016 243.663 84.1287 247.623 86.1644 251.27C94.0242 265.383 110.095 274.973 125.317 279.328C135.477 282.234 146.649 283.292 157.171 282.021C165.418 281.027 173.47 278.653 181.165 275.572C184.132 274.385 187.327 273.321 190.128 271.773C187.854 272.309 185.316 272.527 182.984 272.426C189.362 271.234 196.232 268.86 201.727 265.389C204.016 263.941 206.081 262.21 208.093 260.407C204.59 261.943 201.797 261.989 198.109 261.146C201.316 258.396 204.534 255.633 207.027 252.194C209.061 249.381 210.603 245.88 211.539 242.559C211.871 241.36 212.051 240.096 212.284 238.878L211.123 240.956C209.71 243.146 208.315 244.264 205.722 244.829C203.274 248.66 200.636 252.168 197.391 255.351C197.339 255.071 197.776 254.703 197.961 254.472C201.222 250.649 204.183 246.73 206.461 242.219C207.644 239.857 208.32 237.225 208.814 234.64C209.715 229.93 209.934 225.378 209.245 220.627C209.047 219.185 208.859 217.694 208.394 216.315C208.431 218.934 208.61 221.915 207.617 224.378C207.019 225.898 206.201 226.753 204.733 227.407C204.431 223.473 204.027 219.482 203.089 215.642C202.322 212.47 201.168 209.454 199.868 206.47C205.331 204.021 210.935 201.454 217.038 201.384C226.734 201.263 234.978 206.41 241.647 212.98C237.658 213.457 233.926 213.195 229.957 212.613L233.671 214.919C239.3 218.774 243.646 224.701 244.896 231.491C246.406 239.718 243.648 247.786 238.997 254.499C240.682 253.046 242.464 251.563 243.955 249.911C249.763 243.433 253.206 234.801 254.6 226.3C255.694 219.623 255.423 212.967 252.335 206.827C250.782 203.708 248.717 200.924 246.688 198.112C247.768 200.665 248.511 203.125 248.704 205.896C248.756 206.668 248.865 207.573 248.571 208.314L248.483 208.528C248.078 209.496 247.279 210.239 246.568 211.002L246.395 210.765C240.41 202.166 231.921 196.355 221.558 194.517C215.731 193.49 209.672 193.952 203.947 195.368C201.091 196.082 198.153 196.887 195.487 198.182C190.226 200.731 185.542 204.653 181.667 209C178.713 212.328 176.129 215.932 173.38 219.421C167.789 226.516 162.066 233.445 154.578 238.632C146.972 243.899 137.309 246.319 128.122 244.605C123.15 243.681 119.146 241.268 116.231 237.038C118.361 238.933 120.342 240.812 122.976 242.004C129.292 244.852 137.997 244.856 144.455 242.38C141.559 243.035 138.444 243.024 135.511 242.733C132.466 242.435 129.532 241.874 126.777 240.503C122.72 238.474 120.34 235.078 118.939 230.856L119.137 230.636L119.896 230.782C120.17 230.62 120.152 230.732 120.077 230.489C119.466 228.429 118.828 226.333 119.793 224.278C120.468 222.828 121.686 221.374 123.222 220.839C123.52 220.885 123.78 220.921 124.086 220.881C124.327 219.355 124.484 217.87 125.401 216.567C126.365 215.213 127.714 214.158 129.043 213.191C129.636 212.755 130.227 212.281 130.958 212.145C131.457 212.254 131.735 212.4 132.144 212.698C132.349 212.848 132.224 212.805 132.493 212.779C132.731 211.905 132.939 210.922 133.378 210.137C133.919 209.173 134.947 208.566 135.84 207.991C138.498 206.29 141.14 205.243 144.188 204.433C144.16 206.268 144.272 207.96 144.539 209.78L145.339 203.598C146.464 197.276 149.395 189.926 154.849 186.124L154.803 185.954C154.395 184.253 154.171 182.542 154.289 180.788C154.529 177.343 155.552 173.783 157.52 170.912C158.436 169.572 159.643 168.39 160.816 167.271C160.149 168.425 159.356 169.512 158.765 170.7C156.252 175.654 155.622 181.088 156.495 186.531C152.433 190.335 149.017 194.265 147.427 199.712C146.915 201.461 146.675 203.246 146.46 205.041C147.936 202.639 149.305 201.018 151.847 199.705C151.19 202.716 150.908 205.586 150.599 208.654C150.311 211.646 150.021 214.602 149.907 217.623C150.457 216.364 150.832 215.04 151.332 213.759C152.258 211.435 153.394 209.37 155.072 207.523C155.08 209.11 155.05 210.675 154.688 212.232C153.597 216.853 150.179 220.501 147.749 224.453C149.515 222.885 151.086 221.143 152.982 219.715C154.831 218.328 156.828 217.19 158.743 215.898C162.563 213.337 164.342 209.898 166.606 206.064C165.913 209.324 164.743 212.4 162.612 215.008C161.918 215.868 161.083 216.613 160.363 217.463C164.026 215.205 167.355 211.969 169.373 208.136C170.146 206.669 170.553 203.596 171.872 202.666L172.125 202.801C172.318 205.104 170.778 207.226 169.683 209.129C172.117 206.689 173.107 204.165 174.11 200.95C176.631 199.479 179.124 198.168 181.376 196.255C182.532 195.272 183.432 194.106 184.445 192.983C186.355 190.878 188.395 189.849 191.042 188.912C192.368 189.545 194.218 190.803 195.735 190.367C196.292 190.203 196.777 189.821 197.339 189.73C197.632 189.691 197.875 189.629 198.167 189.552C198.317 189.606 198.394 189.651 198.555 189.667C199.101 189.75 199.619 189.538 200.071 189.232C200.749 188.778 201.407 187.698 201.526 186.892C201.569 186.546 201.479 186.476 201.281 186.204L200.947 186.172L200.123 187.15L197.738 187.458C197.737 186.474 197.825 185.558 197.971 184.591C199.025 184.487 200.105 184.419 201.096 184.072C202.282 183.678 203.337 182.873 204.452 182.311L205.286 182.957C207.318 184.636 208.189 187.175 208.432 189.734C208.85 188.051 209.232 186.161 209.179 184.429C209.148 183.114 208.787 181.606 207.945 180.567C207.484 180 206.87 179.552 206.363 179.025C205.895 178.557 205.435 177.99 204.934 177.585C203.071 176.095 201.793 179.225 200.112 179.337C199.873 178.992 199.819 178.909 199.822 178.478C199.823 177.321 200.793 176.077 201.615 175.321C202.298 174.707 203.072 174.212 204.033 174.224C204.599 174.219 205.135 174.573 205.672 174.729C206.309 174.905 206.975 174.92 207.629 174.948C208.348 175.993 208.732 177.229 209.163 178.412C209.409 176.751 209.427 175.199 209.365 173.517C210.271 173.667 211.238 173.801 212.072 174.201C213.776 175.023 214.242 176.648 214.796 178.305C214.882 176.405 214.883 174.523 214.053 172.757C213.415 171.375 211.862 169.45 210.335 168.963C209.271 168.624 208.693 168.863 207.756 169.318C206.237 169.95 205.26 167.724 203.928 167.437C203.081 167.259 202.419 168.499 201.804 168.974C201.378 169.304 200.898 169.562 200.445 169.832C198.881 170.774 198.062 171.617 197.614 173.412C196.051 174.859 194.716 176.171 194.036 178.261C193.759 179.1 193.681 179.965 193.467 180.813L193.395 181.087C191.558 182.708 189.148 183.719 186.861 184.49C183.195 185.726 179.428 186.462 175.602 186.981C173.768 187.223 171.832 187.41 170.06 187.895C165.945 189.044 162.877 192.082 160.365 195.387C161.529 191.488 164.569 187.909 168.018 185.799C169.998 184.576 172.185 183.528 174.005 182.055C175.352 180.976 176.299 179.758 177.335 178.376C176.878 179.298 176.402 180.319 175.754 181.128C173.95 183.387 171.136 184.677 168.994 186.585C169.777 186.237 170.617 185.824 171.457 185.633C173.051 185.279 174.818 185.397 176.455 185.152C179.008 184.761 181.621 184.109 184.123 183.451C186.419 182.852 188.961 182.24 191.04 181.037L190.958 180.869C186.309 182.624 181.763 183.757 176.837 184.443C180.526 179.847 183.366 175.024 183.373 168.969C183.371 163.949 182.15 158.906 178.465 155.282C176.039 152.885 173.127 151.806 169.708 151.884C165.317 151.976 161.331 154.398 158.259 157.363C157.074 158.495 156.045 159.778 154.913 160.981C157.037 157.315 159.885 153.341 163.696 151.334C167.22 149.491 171.565 148.515 175.447 149.778C179.065 150.944 181.385 154.368 183.055 157.604C186.299 163.896 185.378 171.068 183.301 177.562C185.209 174.227 186.527 169.963 186.77 166.111C186.849 164.778 186.728 163.381 186.67 162.043C187.942 160.205 188.765 158.514 189.342 156.343C190.56 157.978 191.342 160.004 192.068 161.911C193.11 164.675 194.281 167.789 194.031 170.792L194.009 171.088C193.808 173.621 192.669 175.871 191.274 177.949L192.592 176.773L192.768 176.592L193.073 176.773C193.409 176.62 193.611 176.006 193.779 175.678C194.352 174.615 194.937 173.551 195.573 172.521C196.379 171.212 197.828 169.709 199.072 168.771C199.678 168.334 200.387 168.002 200.938 167.481C202.417 166.075 203.516 164.246 204.521 162.484C207.51 157.21 209.375 151.625 209.427 145.507C209.569 130.414 201.86 115.186 190.507 105.413C188.523 103.707 186.479 102.029 184.39 100.451C181.764 98.4829 179.084 96.6652 176.783 94.3112C173.364 90.8214 170.902 85.8301 171.013 80.853C171.069 78.1307 172.261 75.2265 174.102 73.2115C174.999 72.2421 176.077 71.411 177.027 70.5004C174.03 72.0708 172.164 73.8287 170.647 76.8728C169.682 76.7752 168.619 76.7072 167.95 75.9051C166.911 74.6177 167.035 72.7409 167.251 71.2039C167.491 69.4195 168.38 67.3308 169.9 66.2553C171.765 64.9405 174.049 66.2618 176.002 66.6405L176.251 66.6892C179.335 67.28 182.882 66.5917 186.052 66.7104L185.639 66.8179C181.476 67.9811 177.571 70.3123 175.417 74.1154C178.11 73.8159 180.893 73.3641 183.552 72.8695C187.296 72.1832 191.006 71.3265 194.834 71.768C189.879 72.3693 185.22 73.226 180.65 75.3209C179.051 76.0559 177.511 76.997 175.954 77.8284C176.478 77.9735 178.082 77.0905 178.687 76.8869C179.74 76.537 180.861 76.3066 181.956 76.053C185.217 75.3057 188.291 74.9987 191.627 74.9859L180.757 83.0922C183.981 81.8669 187.162 80.533 190.531 79.7309C192.756 79.1972 195.12 78.964 197.384 78.6867C196.49 79.0283 195.522 79.1154 194.584 79.3117C193.44 79.5556 192.287 79.886 191.144 80.1667C196.624 80.4242 202.672 80.7137 207.503 83.6505C210.821 85.6688 214.954 89.4169 215.885 93.3555C216.374 95.4343 216.205 96.6859 215.092 98.4786L215.176 98.6834C216.964 98.7262 218.04 98.1167 219.48 97.1561C219.912 97.8843 220.28 98.5789 220.459 99.4187C221.03 102.121 219.779 104.351 218.365 106.529C220.457 105.313 222.225 104.274 223.647 102.256C223.991 101.771 224.894 99.9395 225.306 99.8197C225.634 99.7289 226.043 99.7938 226.335 99.951C226.371 100.171 226.407 100.39 226.394 100.612C226.367 102.718 225.239 103.982 223.872 105.419C225.045 105.001 226.13 104.551 227.032 103.668C229.083 101.667 229.798 99.3039 229.825 96.497C230.829 95.2144 231.875 94.0036 232.395 92.4138C232.787 91.1876 233.454 88.3721 232.852 87.2097C232.608 88.9204 232.187 90.2836 230.753 91.3669C229.912 92.0134 228.854 92.4989 227.776 92.3579C227.485 91.9792 227.978 89.8495 227.902 89.1028C227.849 88.5395 227.679 88.1176 227.255 87.7705C226.99 88.8424 227.575 89.9073 227.12 91.1121C226.72 91.4774 226.643 91.6414 226.093 91.7191L225.933 91.4813L226.851 90.437L226.772 90.3303C226.335 90.4637 226.2 90.6922 225.947 91.0498C225.809 91.2416 225.758 91.2073 225.54 91.2678L225.379 91.0177L225.964 90.1753L225.829 89.9485L225.484 90.1879C225.35 89.9856 225.287 89.952 225.084 89.8272L224.518 90.3118L224.381 90.282C224.366 89.9874 224.355 89.7788 224.242 89.5016C223.977 88.9001 224.462 87.8167 224.439 87.1288C224.434 86.7969 224.381 86.4797 224.146 86.2334C223.901 86.9598 223.828 88.1695 223.88 88.942C223.894 89.212 223.907 89.2236 223.798 89.4877C223.354 89.2277 223.642 88.8559 223.29 88.4681C222.946 88.7198 222.781 88.8637 222.35 88.8614C222.356 88.5042 222.532 88.3351 222.714 88.0427L222.581 87.8527C222.224 88.0927 222.048 88.274 221.605 88.2724C221.537 87.9191 221.49 87.7123 221.546 87.3649C221.613 86.9923 221.612 87.2261 221.555 86.8353L220.959 86.9646L220.863 86.785L221.339 85.5175L221.097 85.3578L220.595 85.6423L220.363 85.4573L220.909 84.8261L220.833 84.547C220.346 84.8922 219.851 85.0778 219.296 85.2912L219.018 85.1456C218.953 84.6076 219.223 84.3598 219.483 83.9033C219.474 83.4977 219.56 83.4933 219.261 83.1888C218.94 83.4146 218.738 83.5482 218.347 83.6053C218.702 82.8609 219.143 82.5797 219.604 81.9651L219.408 81.7415C218.774 82.1066 217.969 82.4928 217.209 82.3108C217.883 80.8361 218.778 79.5715 219.363 78.04L217.811 79.6709L217.712 79.6637L217.562 79.3884L216.98 79.8L216.787 79.6378L217.392 78.2528L217.111 78.0582L216.303 78.3708L216.099 78.246C216.21 77.7604 216.692 77.5754 216.995 77.2398C217.275 76.93 217.283 76.8557 217.264 76.4876C216.916 76.6656 216.758 76.7106 216.362 76.6696L216.41 76.4087C216.683 76.21 217.029 75.9952 217.237 75.7261C217.514 75.3672 217.539 74.9106 217.841 74.5627C218.232 74.727 218.572 74.8817 218.94 75.0964L218.823 75.9269C219.215 76.6079 219.225 77.2719 219.277 78.0321C219.686 77.1373 219.032 76.1621 219.68 75.3656C220.593 75.6383 221.904 76.6901 222.674 77.3024C223.166 78.4828 222.835 80.1734 222.902 81.462C223.428 80.9179 223.438 78.0257 223.565 77.1455C224.263 77.5523 224.997 77.9449 225.593 78.5047C225.697 79.8036 224.989 80.4063 224.202 81.3577C224.747 80.948 225.779 80.2054 226.016 79.5533L226.09 79.3034C226.433 79.2733 226.252 79.5903 226.618 79.7682C226.623 79.3865 226.558 79.0822 226.776 78.7633L227.004 78.8991C227.258 79.046 227.458 79.0971 227.644 79.3582C227.831 79.6438 227.884 79.961 227.79 80.2858C227.695 80.5861 227.688 80.6849 227.4 80.8352C227.281 80.4353 227.224 80.0445 227.165 79.6168C227.025 80.2516 227.045 80.8659 227.053 81.5053C226.906 81.759 226.77 81.9753 226.711 82.2736L226.845 82.2298C227.925 81.7062 228.374 80.6247 228.739 79.5845C230.219 80.1107 231.635 80.8249 232.868 81.807L231.592 85.4539C232.399 84.1692 233.037 83.1763 234.164 82.1212C234.885 82.4899 235.653 82.807 236.131 83.4836C237.035 84.7658 236.715 86.1974 236.419 87.6155C237.061 86.7086 237.544 85.7976 238.008 84.7891L238.095 85.0307C239.247 88.0227 239.216 91.9373 238.203 94.9554C241.159 92.3658 243.23 88.85 244.092 85.0522L245.976 85.7667C246.399 83.9606 246.316 82.3529 246.123 80.5294C246.061 80.0527 245.906 79.4455 245.943 78.9637C245.967 78.7041 246.159 78.3865 246.219 78.1127C246.549 76.6435 246.518 75.3285 245.988 73.8917C245.302 72.0568 244.193 71.3268 242.515 70.5401C242.846 71.2366 243.357 72.0592 243.507 72.8143C243.623 73.3989 243.353 73.8928 243.045 74.3641L242.772 74.3167C242.08 74.0326 241.075 72.928 240.447 72.4561C237.079 69.9481 232.001 67.2211 230.865 62.887C230.483 61.4548 231.78 60.1079 231.412 58.9334C231.206 58.2919 230.523 57.6997 230.055 57.2317C228.715 55.8369 227.27 54.5582 225.836 53.2666C225.204 52.7087 224.457 51.8368 223.713 51.5062C222.806 51.098 221.957 50.1575 221.208 49.4949C219.892 48.3326 218.591 47.2065 217.194 46.1468C214.414 44.0513 211.482 42.1237 208.588 40.2064C207.147 39.2474 205.677 38.4376 204.315 37.3515L206.735 38.4197C204.459 34.6615 200.442 31.7319 196.198 30.6229C197.376 32.2107 199.072 33.5748 200.463 35.0039C204.367 39.0592 206.524 43.6111 208.263 48.9106L199.441 46.8821C195.971 43.8257 192.416 41.2659 188.145 39.3953C183.308 37.2834 178.035 36.4984 173.671 33.3037C172.187 32.2239 170.847 30.8413 169.502 29.5821C170.36 31.1865 171.217 32.7541 172.35 34.172C175.521 38.1176 180 40.9248 184.249 43.5595C186.349 44.878 188.547 46.1915 190.37 47.8813C187.606 46.3264 184.683 45.0382 181.929 43.4582C178.744 41.6175 175.953 39.3257 173.228 36.8705C174.984 40.5818 177.343 44.7664 180.111 47.81C182.056 49.9487 184.337 51.6763 186.826 53.1347C188.527 54.1294 190.394 54.7463 192.07 55.7423L192.236 55.8445C190.938 55.5057 189.642 55.2037 188.284 55.1387C185.198 54.9909 181.837 55.9403 178.988 57.0354C182.82 57.3168 186.37 57.8712 190.081 58.9217C191.979 59.4509 193.731 59.9877 195.478 60.9184C192.511 60.2108 189.637 59.3999 186.608 58.917C184.87 58.6379 183.161 58.4435 181.406 58.3129C179.886 58.1948 178.321 58.1652 176.834 57.75C175.473 57.3776 174.183 56.7184 172.908 56.1077C176.296 60.202 181.032 63.9189 186.103 65.5511C184.919 65.5263 183.701 65.5279 182.531 65.2809C181.187 65.006 180.049 64.4374 178.869 63.7602C174.136 61.0522 171.799 56.805 168.983 52.3611C171.633 54.3157 174.662 56.4598 178.154 55.6636C180.637 55.1043 182.771 54.2308 185.356 53.9983C179.917 51.4377 176.324 47.4279 173.504 42.1966C164.389 45.1915 155.612 50.6914 149.703 58.3069C139.686 71.2295 137.356 88.5158 146.204 102.676C149.479 107.908 153.796 112.348 156.344 118.036C157.123 119.768 157.794 121.554 158.029 123.462C158.685 128.99 156.775 133.961 153.365 138.248C154.641 135.782 155.967 133.339 156.514 130.579C158.729 119.402 149.62 111.58 144.451 102.828C142.008 98.6972 140.331 94.1205 139.556 89.3863C137.808 78.6976 141.101 67.6369 147.373 58.9567C152.185 52.2718 158.627 47.3359 166.016 43.8152C168.119 42.8202 170.295 41.8092 172.615 41.4306C172.793 41.5444 172.946 41.6349 173.146 41.6984C173.104 41.1345 172.791 40.5478 172.579 40.0297C172.182 39.0166 171.785 38.0036 171.412 36.9892C170.622 34.803 170.2 32.3638 169.29 30.2575C168.955 29.4874 168.441 28.825 167.927 28.1748L170.286 36.1739C167.985 35.9609 165.79 36.6038 163.624 37.319C164.647 37.3398 165.558 37.3541 166.515 37.7598C167.636 38.2432 168.588 38.7968 169.055 39.9785C169.011 40.0669 169.004 40.178 168.946 40.2425C168.911 40.2813 168.848 40.2476 168.799 40.2502C167.691 40.2583 166.598 40.315 165.507 40.3961C158.138 40.9872 150.79 42.217 143.601 43.8939C139.951 44.7352 136.217 45.6177 132.832 47.2944C136.212 46.4793 139.148 46.118 142.34 47.8353C145.265 49.4064 146.721 51.6074 147.646 54.7219C139.46 58.3085 132.597 64.8659 127.029 71.6885C127.97 71.086 128.891 70.5584 129.956 70.1956C133.355 69.035 136.637 69.1726 139.847 70.7659C138.908 72.1312 137.841 73.4046 136.916 74.7938C133.787 79.5089 131.099 84.4225 129.058 89.6965C127.994 92.4587 127.193 95.2935 126.392 98.1282L127.615 96.0714C129.458 93.1458 132.933 89.8771 136.43 89.1668C137.003 89.0633 137.45 89.1263 137.933 89.4334C138.02 91.3485 137.377 93.6706 137.059 95.6067C136.212 100.893 135.219 106.198 135.387 111.567C135.773 110.476 136.159 109.373 136.76 108.37C137.891 106.441 139.639 104.776 141.876 104.229C142.582 104.057 142.971 104.209 143.569 104.572C144.11 105.282 144.239 106.334 144.443 107.185C145.761 112.678 146.15 118.515 146.417 124.15C146.906 123.115 147.297 122.111 148.001 121.2C148.659 120.354 149.635 119.713 150.727 119.644C151.279 119.603 151.93 119.815 152.344 120.2C152.771 120.596 152.967 121.288 153.143 121.832C153.766 123.879 153.891 125.817 153.828 127.937C150.999 127.739 148.513 127.043 145.995 125.734C141.464 123.36 137.729 120.182 134.261 116.461C128.407 110.169 123.788 102.521 121.208 94.2993C118.803 86.6225 117.669 77.5632 121.544 70.1392C120.988 73.675 121.197 76.7527 122.261 80.18C122.386 77.1341 123.228 74.125 124.941 71.5506C126.039 69.9186 127.352 68.4232 128.348 66.7227C130.792 62.5846 130.991 58.329 129.83 53.7501C128.28 47.5918 124.364 43.3033 118.965 40.0884C121.577 43.46 124.35 48.263 124.381 52.6543C124.391 54.0443 124.012 55.5282 122.993 56.5285C121.832 57.6469 120.098 57.4415 118.681 56.9488C117.716 56.6174 116.846 55.9857 116.005 55.4263C114.871 54.6976 113.763 53.992 112.585 53.3394C107.997 50.8208 103.338 48.5766 98.5505 46.4744C78.8344 37.8242 57.3689 33.1901 35.837 32.9769Z" fill="url(#paint1_linear_35_126)"/>
<path d="M127.304 114.929L127.312 115.094C127.38 115.435 127.74 115.891 127.93 116.201C128.5 117.085 129.106 117.955 129.747 118.787C134.991 125.489 141.439 130.646 149.516 134.035C149.517 133.821 145.873 131.792 145.282 131.443C138.04 127.087 132.282 121.538 127.304 114.929Z" fill="#FFB5B5"/>
<path d="M155.002 65.2618C154.174 65.9752 153.409 67.2094 152.823 68.1297C150.047 72.4182 147.731 77.5849 147.266 82.7289C146.967 85.9016 146.999 89.106 147.697 92.227C148.264 94.6967 149.312 97.0438 150.488 99.2746C153.518 105.054 157.615 109.803 161.738 114.807C167.124 121.354 169.875 129.062 169.062 137.589L169.039 137.846C169.639 136.498 169.625 134.11 169.645 132.609C169.732 125.827 167.179 120.072 163.019 114.826C161.207 112.543 159.195 110.416 157.405 108.108C153.669 103.267 150.599 97.8914 149.095 91.923C147.41 85.2813 148.388 78.5017 151.149 72.2879C152.253 69.8293 153.623 67.5762 155.002 65.2618Z" fill="#FFB5B5"/>
<path d="M188.466 121.406L188.428 121.579C188.376 122.416 189.261 124.123 189.567 124.977C190.294 127.085 190.825 129.301 191.727 131.338C192.94 134.095 194.549 136.709 196.108 139.264C197.902 142.211 199.705 145.133 201.533 148.054C202.816 150.109 203.905 152.308 205.268 154.297C205.658 154.019 205.729 153.55 205.849 153.114C207.332 146.638 207.459 138.308 204.681 132.175C203.165 131.138 201.418 130.468 199.866 129.421C196.046 126.824 192.406 123.788 188.466 121.406Z" fill="#FFB5B5"/>
<path d="M193.023 137.568C192.625 137.962 192.765 141.148 192.706 141.91C192.503 144.655 192.092 149.327 190.12 151.441C190.073 152.913 190.018 154.47 190.327 155.912C190.81 158.103 192.11 160.361 192.958 162.462C193.96 164.915 194.738 167.574 195.992 169.906C196.35 170.141 196.366 170.212 196.794 170.166C197.477 169.552 198.031 168.825 198.61 168.12C201.198 164.793 203.358 159.887 203.634 155.692C203.669 155.196 203.678 154.641 203.542 154.167C203.26 153.229 202.603 152.203 202.138 151.324C200.418 148.076 198.484 144.996 196.357 141.986C195.306 140.486 194.24 138.939 193.023 137.568Z" fill="#FFB5B5"/>
<path d="M43.5505 38.2641L43.2668 38.2543C44.5226 38.7284 45.9008 38.9511 47.1975 39.2638C49.0421 39.6951 50.8756 40.1516 52.7092 40.608C58.4328 42.0026 64.1756 43.5309 69.7838 45.3113C79.3476 48.3451 88.6466 52.4464 97.0226 57.9804C102.122 61.3435 107.298 65.4747 110.156 70.9759C106.528 71.5316 102.731 73.1008 99.2748 74.3583C83.8056 79.9637 69.2347 87.226 55.7622 96.6739C53.2193 98.4477 50.6118 100.164 48.2405 102.162L48.3193 102.255C59.9264 94.3503 72.2985 87.9005 85.6192 83.3623C88.4747 82.3933 91.3418 81.4114 94.2695 80.647C98.8371 79.4544 103.475 78.6627 108.156 78.0034C105.42 79.8486 103.012 82.0812 100.629 84.3369C94.6674 89.9889 89.5401 96.0632 84.8516 102.764C81.4815 107.583 78.6521 112.62 76.0054 117.855C71.818 126.147 68.3165 134.846 66.0632 143.872C65.7678 145.063 65.4855 146.267 65.2024 147.458C65.0811 147.967 64.851 148.518 64.939 149.028L69.4039 135.635C76.3212 119.199 86.0443 103.683 99.4736 91.7373C102.992 88.6016 106.859 85.5214 111.124 83.4745C112.067 86.4648 112.73 89.5308 113.649 92.5223C115.576 98.8194 117.723 105.338 120.639 111.24C124.106 118.267 128.996 124.961 134.365 130.664C137.843 134.356 141.556 138.048 145.893 140.728L146.001 140.661L139.256 134.528C127.915 122.861 119.751 107.867 116.657 91.8885C115.867 87.7997 115.322 83.6981 115.401 79.5275C115.484 75.4301 116.378 70.58 118.774 67.1594C119.771 65.723 121.038 64.5298 122.306 63.3245C121.081 63.4492 119.768 63.5295 118.578 63.8608C117.474 64.1631 116.429 64.6829 115.408 65.177C108.614 60.235 101.356 55.599 93.7802 51.9598C78.1607 44.4483 60.6081 40.7379 43.5505 38.2641Z" fill="#FFB5B5"/>
<path d="M125.672 180.608C125.01 180.948 124.336 181.765 123.794 182.282C120.944 185.009 118.216 187.937 115.755 191.023C106.621 202.472 99.8194 217.431 101.651 232.273C102.843 241.904 109.606 251.015 117.201 256.843C123.019 261.308 130.185 264.836 137.238 266.878C139.697 267.594 142.33 268.069 144.862 268.512C151.074 269.596 157.199 269.963 163.474 269.186C173.998 267.858 185.216 263.928 191.912 255.293C199.768 245.169 200.559 230.852 198.999 218.648C198.527 215.25 197.951 212.016 196.867 208.748C190.373 212.715 186.506 219.662 182.654 225.949C180.593 229.344 178.495 232.74 176.305 236.044C174.117 239.372 171.494 242.662 168.817 245.636C159.196 256.28 146.811 262.96 132.277 263.701C130.773 263.779 129.278 262.829 127.994 262.138C124.054 260.057 120.428 257.592 117.122 254.61C112.063 250.007 107.739 244.315 105.487 237.831C104.251 234.253 103.707 230.431 103.548 226.662C102.953 213.015 109.949 199.428 118.255 188.938C120.576 186.018 123.144 183.343 125.672 180.608Z" fill="#FFB5B5"/>
</g>
<g clip-path="url(#clip1_35_126)">
<path d="M265 51C265 84.1371 238.137 111 205 111L25 111C25 77.8629 51.8629 51 85 51L265 51Z" fill="#FFB5B5"/>
<path d="M184.073 3.09L184.006 3.18076C183.739 3.61839 183.707 4.62974 183.662 5.15561C183.387 7.9746 183.396 10.7165 183.687 13.5311C183.957 16.1971 184.492 18.837 185.18 21.4315C185.541 22.8089 185.924 24.3971 186.768 25.5749C187.976 27.27 189.915 28.6529 191.557 29.8891C192.46 30.5653 193.481 31.6841 194.469 32.144C195.086 32.4237 195.848 32.4839 196.508 32.6617C198.181 33.1109 199.793 33.9997 201.174 35.075C202.83 36.3479 204.211 37.8843 205.582 39.4712C206.313 40.3184 207.026 41.2911 207.858 42.0084C209.373 43.3385 211.305 44.3602 212.944 45.5343C215.346 47.2547 217.601 49.1572 219.868 51.0592C220.034 51.25 220.072 51.2854 220.318 51.3724C219.626 49.8875 218.564 48.4467 217.685 47.0711C214.63 42.2683 211.328 37.6028 207.648 33.306C206.506 31.9566 205.269 30.4002 203.843 29.3896C202.593 28.507 201.151 27.8837 199.802 27.1932C197.24 25.8799 194.778 24.3995 192.618 22.4671C187.453 17.8608 184.61 9.96797 184.073 3.09Z" fill="url(#paint2_linear_35_126)"/>
<path d="M162.001 4.23355L161.871 4.36322C161.354 6.65163 161.256 9.0904 161.339 11.4214C161.493 15.5803 162.235 19.5611 163.66 23.4819C164.473 25.7014 165.541 28.0306 167.236 29.725C168.302 30.8006 169.653 31.382 171.019 31.9995C172.742 32.7829 174.501 33.5276 176.236 34.2981C178.47 35.3008 180.68 36.3417 182.868 37.4329C189.164 40.5851 195.25 44.2521 200.432 48.9862L205.873 50.0686L206.6 50.1538L206.739 49.9499C203.889 40.6578 197.068 33.87 188.43 29.5486C185.653 28.1561 182.709 27.141 179.789 26.1123C176.627 24.9978 172.874 24.2582 170.21 22.1592C165.309 18.271 162.609 10.188 162.001 4.23355Z" fill="url(#paint3_linear_35_126)"/>
<path d="M35.837 35.9769C34.0102 35.8869 32.0863 36.0605 30.2567 36.1553C23.2843 36.5535 16.5245 37.7282 10.0381 40.3777C11.7793 40.0045 13.5172 39.8037 15.3137 39.7844C25.7238 39.6756 35.5196 44.5823 42.8255 51.8083C45.888 54.8366 48.572 58.4013 49.762 62.5972C52.7361 73.1855 44.6514 86.8078 38.5617 94.974C34.1178 100.926 28.9694 106.349 24.488 112.291C21.8964 115.735 19.3566 119.706 17.5536 123.638C15.3181 128.492 14.5366 133.368 14.5528 138.671C15.3615 135.27 16.4704 132.197 18.3857 129.243C21.5318 124.38 25.9352 121.211 31.5971 119.994C24.7632 133.995 18.7738 148.85 17.8036 164.577C17.4779 169.934 17.6381 175.402 18.5158 180.697C20.327 191.653 24.8179 202.052 30.7792 211.365C33.2168 215.164 35.962 218.96 38.968 222.323C35.4217 215.899 32.2877 209.589 30.6213 202.378C27.34 188.238 31.3483 173.165 38.8688 161.012C42.2661 155.532 48.0744 149.3 54.5579 147.783L55.456 148.721C56.4115 149.816 57.0416 151.284 57.5665 152.623C59.5615 157.86 59.9513 163.956 60.0914 169.51C60.1347 171.058 60.2542 172.652 60.1618 174.195C60.809 172.192 61.2683 170.126 61.9272 168.111C64.316 160.752 68.0855 153.665 74.1441 148.7C80.3566 143.616 87.6289 141.64 95.5503 142.447C94.8465 144.071 93.8907 145.585 93.2128 147.232C91.076 152.326 90.4577 157.502 89.8528 162.935C90.3771 161.887 90.8627 160.803 91.4878 159.799C93.6264 156.403 96.6538 153.526 100.241 151.716C105.304 149.153 110.703 148.799 116.077 150.588C123.28 152.983 129.673 159.457 132.974 166.14C134.777 169.799 135.53 173.403 135.556 177.474C135.573 178.987 135.502 180.713 135.011 182.154C135.479 178.118 134.755 173.418 133.268 169.668C130.49 162.626 124.757 157.238 117.88 154.248C113.502 154.819 108.991 155.68 104.961 157.513C107.012 157.161 108.935 156.741 111.027 156.965C112.749 157.159 114.412 157.897 115.482 159.294C116.566 160.739 116.288 162.021 116.041 163.67L115.843 163.656C104.123 162.946 91.6881 167.467 82.8905 175.17C83.8137 174.692 84.7595 174.175 85.7518 173.841C89.5132 172.539 94.1362 171.942 97.8174 173.843C99.7403 174.839 100.347 176.333 100.965 178.27C103.216 175.631 105.693 173.287 108.256 170.964C112.16 167.415 116.094 164.221 120.632 161.5C121.718 160.853 123.242 159.839 124.486 159.615C124.864 159.546 124.893 159.631 125.176 159.862C124.714 160.686 121.413 162.567 120.416 163.271C119.146 164.186 117.903 165.161 116.686 166.135C101.564 178.19 88.7422 194.248 83.3389 213.047C80.5241 222.877 79.9919 232.564 82.063 242.596C82.9016 246.663 84.1287 250.623 86.1644 254.27C94.0242 268.383 110.095 277.973 125.317 282.328C135.477 285.234 146.649 286.292 157.171 285.021C165.418 284.027 173.47 281.653 181.165 278.572C184.132 277.385 187.327 276.321 190.128 274.773C187.854 275.309 185.316 275.527 182.984 275.426C189.362 274.234 196.232 271.86 201.727 268.389C204.016 266.941 206.081 265.21 208.093 263.407C204.59 264.943 201.797 264.989 198.109 264.146C201.316 261.396 204.534 258.633 207.027 255.194C209.061 252.381 210.603 248.88 211.539 245.559C211.871 244.36 212.051 243.096 212.284 241.878L211.123 243.956C209.71 246.146 208.315 247.264 205.722 247.829C203.274 251.66 200.636 255.168 197.391 258.351C197.339 258.071 197.776 257.703 197.961 257.472C201.222 253.649 204.183 249.73 206.461 245.219C207.644 242.857 208.32 240.225 208.814 237.64C209.715 232.93 209.934 228.378 209.245 223.627C209.047 222.185 208.859 220.694 208.394 219.315C208.431 221.934 208.61 224.915 207.617 227.378C207.019 228.898 206.201 229.753 204.733 230.407C204.431 226.473 204.027 222.482 203.089 218.642C202.322 215.47 201.168 212.454 199.868 209.47C205.331 207.021 210.935 204.454 217.038 204.384C226.734 204.263 234.978 209.41 241.647 215.98C237.658 216.457 233.926 216.195 229.957 215.613L233.671 217.919C239.3 221.774 243.646 227.701 244.896 234.491C246.406 242.718 243.648 250.786 238.997 257.499C240.682 256.046 242.464 254.563 243.955 252.911C249.763 246.433 253.206 237.801 254.6 229.3C255.694 222.623 255.423 215.967 252.335 209.827C250.782 206.708 248.717 203.924 246.688 201.112C247.768 203.665 248.511 206.125 248.704 208.896C248.756 209.668 248.865 210.573 248.571 211.314L248.483 211.528C248.078 212.496 247.279 213.239 246.568 214.002L246.395 213.765C240.41 205.166 231.921 199.355 221.558 197.517C215.731 196.49 209.672 196.952 203.947 198.368C201.091 199.082 198.153 199.887 195.487 201.182C190.226 203.731 185.542 207.653 181.667 212C178.713 215.328 176.129 218.932 173.38 222.421C167.789 229.516 162.066 236.445 154.578 241.632C146.972 246.899 137.309 249.319 128.122 247.605C123.15 246.681 119.146 244.268 116.231 240.038C118.361 241.933 120.342 243.812 122.976 245.004C129.292 247.852 137.997 247.856 144.455 245.38C141.559 246.035 138.444 246.024 135.511 245.733C132.466 245.435 129.532 244.874 126.777 243.503C122.72 241.474 120.34 238.078 118.939 233.856L119.137 233.636L119.896 233.782C120.17 233.62 120.152 233.732 120.077 233.489C119.466 231.429 118.828 229.333 119.793 227.278C120.468 225.828 121.686 224.374 123.222 223.839C123.52 223.885 123.78 223.921 124.086 223.881C124.327 222.355 124.484 220.87 125.401 219.567C126.365 218.213 127.714 217.158 129.043 216.191C129.636 215.755 130.227 215.281 130.958 215.145C131.457 215.254 131.735 215.4 132.144 215.698C132.349 215.848 132.224 215.805 132.493 215.779C132.731 214.905 132.939 213.922 133.378 213.137C133.919 212.173 134.947 211.566 135.84 210.991C138.498 209.29 141.14 208.243 144.188 207.433C144.16 209.268 144.272 210.96 144.539 212.78L145.339 206.598C146.464 200.276 149.395 192.926 154.849 189.124L154.803 188.954C154.395 187.253 154.171 185.542 154.289 183.788C154.529 180.343 155.552 176.783 157.52 173.912C158.436 172.572 159.643 171.39 160.816 170.271C160.149 171.425 159.356 172.512 158.765 173.7C156.252 178.654 155.622 184.088 156.495 189.531C152.433 193.335 149.017 197.265 147.427 202.712C146.915 204.461 146.675 206.246 146.46 208.041C147.936 205.639 149.305 204.018 151.847 202.705C151.19 205.716 150.908 208.586 150.599 211.654C150.311 214.646 150.021 217.602 149.907 220.623C150.457 219.364 150.832 218.04 151.332 216.759C152.258 214.435 153.394 212.37 155.072 210.523C155.08 212.11 155.05 213.675 154.688 215.232C153.597 219.853 150.179 223.501 147.749 227.453C149.515 225.885 151.086 224.143 152.982 222.715C154.831 221.328 156.828 220.19 158.743 218.898C162.563 216.337 164.342 212.898 166.606 209.064C165.913 212.324 164.743 215.4 162.612 218.008C161.918 218.868 161.083 219.613 160.363 220.463C164.026 218.205 167.355 214.969 169.373 211.136C170.146 209.669 170.553 206.596 171.872 205.666L172.125 205.801C172.318 208.104 170.778 210.226 169.683 212.129C172.117 209.689 173.107 207.165 174.11 203.95C176.631 202.479 179.124 201.168 181.376 199.255C182.532 198.272 183.432 197.106 184.445 195.983C186.355 193.878 188.395 192.849 191.042 191.912C192.368 192.545 194.218 193.803 195.735 193.367C196.292 193.203 196.777 192.821 197.339 192.73C197.632 192.691 197.875 192.629 198.167 192.552C198.317 192.606 198.394 192.651 198.555 192.667C199.101 192.75 199.619 192.538 200.071 192.232C200.749 191.778 201.407 190.698 201.526 189.892C201.569 189.546 201.479 189.476 201.281 189.204L200.947 189.172L200.123 190.15L197.738 190.458C197.737 189.474 197.825 188.558 197.971 187.591C199.025 187.487 200.105 187.419 201.096 187.072C202.282 186.678 203.337 185.873 204.452 185.311L205.286 185.957C207.318 187.636 208.189 190.175 208.432 192.734C208.85 191.051 209.232 189.161 209.179 187.429C209.148 186.114 208.787 184.606 207.945 183.567C207.484 183 206.87 182.552 206.363 182.025C205.895 181.557 205.435 180.99 204.934 180.585C203.071 179.095 201.793 182.225 200.112 182.337C199.873 181.992 199.819 181.909 199.822 181.478C199.823 180.321 200.793 179.077 201.615 178.321C202.298 177.707 203.072 177.212 204.033 177.224C204.599 177.219 205.135 177.573 205.672 177.729C206.309 177.905 206.975 177.92 207.629 177.948C208.348 178.993 208.732 180.229 209.163 181.412C209.409 179.751 209.427 178.199 209.365 176.517C210.271 176.667 211.238 176.801 212.072 177.201C213.776 178.023 214.242 179.648 214.796 181.305C214.882 179.405 214.883 177.523 214.053 175.757C213.415 174.375 211.862 172.45 210.335 171.963C209.271 171.624 208.693 171.863 207.756 172.318C206.237 172.95 205.26 170.724 203.928 170.437C203.081 170.259 202.419 171.499 201.804 171.974C201.378 172.304 200.898 172.562 200.445 172.832C198.881 173.774 198.062 174.617 197.614 176.412C196.051 177.859 194.716 179.171 194.036 181.261C193.759 182.1 193.681 182.965 193.467 183.813L193.395 184.087C191.558 185.708 189.148 186.719 186.861 187.49C183.195 188.726 179.428 189.462 175.602 189.981C173.768 190.223 171.832 190.41 170.06 190.895C165.945 192.044 162.877 195.082 160.365 198.387C161.529 194.488 164.569 190.909 168.018 188.799C169.998 187.576 172.185 186.528 174.005 185.055C175.352 183.976 176.299 182.758 177.335 181.376C176.878 182.298 176.402 183.319 175.754 184.128C173.95 186.387 171.136 187.677 168.994 189.585C169.777 189.237 170.617 188.824 171.457 188.633C173.051 188.279 174.818 188.397 176.455 188.152C179.008 187.761 181.621 187.109 184.123 186.451C186.419 185.852 188.961 185.24 191.04 184.037L190.958 183.869C186.309 185.624 181.763 186.757 176.837 187.443C180.526 182.847 183.366 178.024 183.373 171.969C183.371 166.949 182.15 161.906 178.465 158.282C176.039 155.885 173.127 154.806 169.708 154.884C165.317 154.976 161.331 157.398 158.259 160.363C157.074 161.495 156.045 162.778 154.913 163.981C157.037 160.315 159.885 156.341 163.696 154.334C167.22 152.491 171.565 151.515 175.447 152.778C179.065 153.944 181.385 157.368 183.055 160.604C186.299 166.896 185.378 174.068 183.301 180.562C185.209 177.227 186.527 172.963 186.77 169.111C186.849 167.778 186.728 166.381 186.67 165.043C187.942 163.205 188.765 161.514 189.342 159.343C190.56 160.978 191.342 163.004 192.068 164.911C193.11 167.675 194.281 170.789 194.031 173.792L194.009 174.088C193.808 176.621 192.669 178.871 191.274 180.949L192.592 179.773L192.768 179.592L193.073 179.773C193.409 179.62 193.611 179.006 193.779 178.678C194.352 177.615 194.937 176.551 195.573 175.521C196.379 174.212 197.828 172.709 199.072 171.771C199.678 171.334 200.387 171.002 200.938 170.481C202.417 169.075 203.516 167.246 204.521 165.484C207.51 160.21 209.375 154.625 209.427 148.507C209.569 133.414 201.86 118.186 190.507 108.413C188.523 106.707 186.479 105.029 184.39 103.451C181.764 101.483 179.084 99.6652 176.783 97.3112C173.364 93.8214 170.902 88.8301 171.013 83.853C171.069 81.1307 172.261 78.2265 174.102 76.2115C174.999 75.2421 176.077 74.411 177.027 73.5004C174.03 75.0708 172.164 76.8287 170.647 79.8728C169.682 79.7752 168.619 79.7072 167.95 78.9051C166.911 77.6177 167.035 75.7409 167.251 74.2039C167.491 72.4195 168.38 70.3308 169.9 69.2553C171.765 67.9405 174.049 69.2618 176.002 69.6405L176.251 69.6892C179.335 70.28 182.882 69.5917 186.052 69.7104L185.639 69.8179C181.476 70.9811 177.571 73.3123 175.417 77.1154C178.11 76.8159 180.893 76.3641 183.552 75.8695C187.296 75.1832 191.006 74.3265 194.834 74.768C189.879 75.3693 185.22 76.226 180.65 78.3209C179.051 79.0559 177.511 79.997 175.954 80.8284C176.478 80.9735 178.082 80.0905 178.687 79.8869C179.74 79.537 180.861 79.3066 181.956 79.053C185.217 78.3057 188.291 77.9987 191.627 77.9859L180.757 86.0922C183.981 84.8669 187.162 83.533 190.531 82.7309C192.756 82.1972 195.12 81.964 197.384 81.6867C196.49 82.0283 195.522 82.1154 194.584 82.3117C193.44 82.5556 192.287 82.886 191.144 83.1667C196.624 83.4242 202.672 83.7137 207.503 86.6505C210.821 88.6688 214.954 92.4169 215.885 96.3555C216.374 98.4343 216.205 99.6859 215.092 101.479L215.176 101.683C216.964 101.726 218.04 101.117 219.48 100.156C219.912 100.884 220.28 101.579 220.459 102.419C221.03 105.121 219.779 107.351 218.365 109.529C220.457 108.313 222.225 107.274 223.647 105.256C223.991 104.771 224.894 102.94 225.306 102.82C225.634 102.729 226.043 102.794 226.335 102.951C226.371 103.171 226.407 103.39 226.394 103.612C226.367 105.718 225.239 106.982 223.872 108.419C225.045 108.001 226.13 107.551 227.032 106.668C229.083 104.667 229.798 102.304 229.825 99.497C230.829 98.2144 231.875 97.0036 232.395 95.4138C232.787 94.1876 233.454 91.3721 232.852 90.2097C232.608 91.9204 232.187 93.2836 230.753 94.3669C229.912 95.0134 228.854 95.4989 227.776 95.3579C227.485 94.9792 227.978 92.8495 227.902 92.1028C227.849 91.5395 227.679 91.1176 227.255 90.7705C226.99 91.8424 227.575 92.9073 227.12 94.1121C226.72 94.4774 226.643 94.6414 226.093 94.7191L225.933 94.4813L226.851 93.437L226.772 93.3303C226.335 93.4637 226.2 93.6922 225.947 94.0498C225.809 94.2416 225.758 94.2073 225.54 94.2678L225.379 94.0177L225.964 93.1753L225.829 92.9485L225.484 93.1879C225.35 92.9856 225.287 92.952 225.084 92.8272L224.518 93.3118L224.381 93.282C224.366 92.9874 224.355 92.7788 224.242 92.5016C223.977 91.9001 224.462 90.8167 224.439 90.1288C224.434 89.7969 224.381 89.4797 224.146 89.2334C223.901 89.9598 223.828 91.1695 223.88 91.942C223.894 92.212 223.907 92.2236 223.798 92.4877C223.354 92.2277 223.642 91.8559 223.29 91.4681C222.946 91.7198 222.781 91.8637 222.35 91.8614C222.356 91.5042 222.532 91.3351 222.714 91.0427L222.581 90.8527C222.224 91.0927 222.048 91.274 221.605 91.2724C221.537 90.9191 221.49 90.7123 221.546 90.3649C221.613 89.9923 221.612 90.2261 221.555 89.8353L220.959 89.9646L220.863 89.785L221.339 88.5175L221.097 88.3578L220.595 88.6423L220.363 88.4573L220.909 87.8261L220.833 87.547C220.346 87.8922 219.851 88.0778 219.296 88.2912L219.018 88.1456C218.953 87.6076 219.223 87.3598 219.483 86.9033C219.474 86.4977 219.56 86.4933 219.261 86.1888C218.94 86.4146 218.738 86.5482 218.347 86.6053C218.702 85.8609 219.143 85.5797 219.604 84.9651L219.408 84.7415C218.774 85.1066 217.969 85.4928 217.209 85.3108C217.883 83.8361 218.778 82.5715 219.363 81.04L217.811 82.6709L217.712 82.6637L217.562 82.3884L216.98 82.8L216.787 82.6378L217.392 81.2528L217.111 81.0582L216.303 81.3708L216.099 81.246C216.21 80.7604 216.692 80.5754 216.995 80.2398C217.275 79.93 217.283 79.8557 217.264 79.4876C216.916 79.6656 216.758 79.7106 216.362 79.6696L216.41 79.4087C216.683 79.21 217.029 78.9952 217.237 78.7261C217.514 78.3672 217.539 77.9106 217.841 77.5627C218.232 77.727 218.572 77.8817 218.94 78.0964L218.823 78.9269C219.215 79.6079 219.225 80.2719 219.277 81.0321C219.686 80.1373 219.032 79.1621 219.68 78.3656C220.593 78.6383 221.904 79.6901 222.674 80.3024C223.166 81.4828 222.835 83.1734 222.902 84.462C223.428 83.9179 223.438 81.0257 223.565 80.1455C224.263 80.5523 224.997 80.9449 225.593 81.5047C225.697 82.8036 224.989 83.4063 224.202 84.3577C224.747 83.948 225.779 83.2054 226.016 82.5533L226.09 82.3034C226.433 82.2733 226.252 82.5903 226.618 82.7682C226.623 82.3865 226.558 82.0822 226.776 81.7633L227.004 81.8991C227.258 82.046 227.458 82.0971 227.644 82.3582C227.831 82.6438 227.884 82.961 227.79 83.2858C227.695 83.5861 227.688 83.6849 227.4 83.8352C227.281 83.4353 227.224 83.0445 227.165 82.6168C227.025 83.2516 227.045 83.8659 227.053 84.5053C226.906 84.759 226.77 84.9753 226.711 85.2736L226.845 85.2298C227.925 84.7062 228.374 83.6247 228.739 82.5845C230.219 83.1107 231.635 83.8249 232.868 84.807L231.592 88.4539C232.399 87.1692 233.037 86.1763 234.164 85.1212C234.885 85.4899 235.653 85.807 236.131 86.4836C237.035 87.7658 236.715 89.1974 236.419 90.6155C237.061 89.7086 237.544 88.7976 238.008 87.7891L238.095 88.0307C239.247 91.0227 239.216 94.9373 238.203 97.9554C241.159 95.3658 243.23 91.85 244.092 88.0522L245.976 88.7667C246.399 86.9606 246.316 85.3529 246.123 83.5294C246.061 83.0527 245.906 82.4455 245.943 81.9637C245.967 81.7041 246.159 81.3865 246.219 81.1127C246.549 79.6435 246.518 78.3285 245.988 76.8917C245.302 75.0568 244.193 74.3268 242.515 73.5401C242.846 74.2366 243.357 75.0592 243.507 75.8143C243.623 76.3989 243.353 76.8928 243.045 77.3641L242.772 77.3167C242.08 77.0326 241.075 75.928 240.447 75.4561C237.079 72.9481 232.001 70.2211 230.865 65.887C230.483 64.4548 231.78 63.1079 231.412 61.9334C231.206 61.2919 230.523 60.6997 230.055 60.2317C228.715 58.8369 227.27 57.5582 225.836 56.2666C225.204 55.7087 224.457 54.8368 223.713 54.5062C222.806 54.098 221.957 53.1575 221.208 52.4949C219.892 51.3326 218.591 50.2065 217.194 49.1468C214.414 47.0513 211.482 45.1237 208.588 43.2064C207.147 42.2474 205.677 41.4376 204.315 40.3515L206.735 41.4197C204.459 37.6615 200.442 34.7319 196.198 33.6229C197.376 35.2107 199.072 36.5748 200.463 38.0039C204.367 42.0592 206.524 46.6111 208.263 51.9106L199.441 49.8821C195.971 46.8257 192.416 44.2659 188.145 42.3953C183.308 40.2834 178.035 39.4984 173.671 36.3037C172.187 35.2239 170.847 33.8413 169.502 32.5821C170.36 34.1865 171.217 35.7541 172.35 37.172C175.521 41.1176 180 43.9248 184.249 46.5595C186.349 47.878 188.547 49.1915 190.37 50.8813C187.606 49.3264 184.683 48.0382 181.929 46.4582C178.744 44.6175 175.953 42.3257 173.228 39.8705C174.984 43.5818 177.343 47.7664 180.111 50.81C182.056 52.9487 184.337 54.6763 186.826 56.1347C188.527 57.1294 190.394 57.7463 192.07 58.7423L192.236 58.8445C190.938 58.5057 189.642 58.2037 188.284 58.1387C185.198 57.9909 181.837 58.9403 178.988 60.0354C182.82 60.3168 186.37 60.8712 190.081 61.9217C191.979 62.4509 193.731 62.9877 195.478 63.9184C192.511 63.2108 189.637 62.3999 186.608 61.917C184.87 61.6379 183.161 61.4435 181.406 61.3129C179.886 61.1948 178.321 61.1652 176.834 60.75C175.473 60.3776 174.183 59.7184 172.908 59.1077C176.296 63.202 181.032 66.9189 186.103 68.5511C184.919 68.5263 183.701 68.5279 182.531 68.2809C181.187 68.006 180.049 67.4374 178.869 66.7602C174.136 64.0522 171.799 59.805 168.983 55.3611C171.633 57.3157 174.662 59.4598 178.154 58.6636C180.637 58.1043 182.771 57.2308 185.356 56.9983C179.917 54.4377 176.324 50.4279 173.504 45.1966C164.389 48.1915 155.612 53.6914 149.703 61.3069C139.686 74.2295 137.356 91.5158 146.204 105.676C149.479 110.908 153.796 115.348 156.344 121.036C157.123 122.768 157.794 124.554 158.029 126.462C158.685 131.99 156.775 136.961 153.365 141.248C154.641 138.782 155.967 136.339 156.514 133.579C158.729 122.402 149.62 114.58 144.451 105.828C142.008 101.697 140.331 97.1205 139.556 92.3863C137.808 81.6976 141.101 70.6369 147.373 61.9567C152.185 55.2718 158.627 50.3359 166.016 46.8152C168.119 45.8202 170.295 44.8092 172.615 44.4306C172.793 44.5444 172.946 44.6349 173.146 44.6984C173.104 44.1345 172.791 43.5478 172.579 43.0297C172.182 42.0166 171.785 41.0036 171.412 39.9892C170.622 37.803 170.2 35.3638 169.29 33.2575C168.955 32.4874 168.441 31.825 167.927 31.1748L170.286 39.1739C167.985 38.9609 165.79 39.6038 163.624 40.319C164.647 40.3398 165.558 40.3541 166.515 40.7598C167.636 41.2432 168.588 41.7968 169.055 42.9785C169.011 43.0669 169.004 43.178 168.946 43.2425C168.911 43.2813 168.848 43.2476 168.799 43.2502C167.691 43.2583 166.598 43.315 165.507 43.3961C158.138 43.9872 150.79 45.217 143.601 46.8939C139.951 47.7352 136.217 48.6177 132.832 50.2944C136.212 49.4793 139.148 49.118 142.34 50.8353C145.265 52.4064 146.721 54.6074 147.646 57.7219C139.46 61.3085 132.597 67.8659 127.029 74.6885C127.97 74.086 128.891 73.5584 129.956 73.1956C133.355 72.035 136.637 72.1726 139.847 73.7659C138.908 75.1312 137.841 76.4046 136.916 77.7938C133.787 82.5089 131.099 87.4225 129.058 92.6965C127.994 95.4587 127.193 98.2935 126.392 101.128L127.615 99.0714C129.458 96.1458 132.933 92.8771 136.43 92.1668C137.003 92.0633 137.45 92.1263 137.933 92.4334C138.02 94.3485 137.377 96.6706 137.059 98.6067C136.212 103.893 135.219 109.198 135.387 114.567C135.773 113.476 136.159 112.373 136.76 111.37C137.891 109.441 139.639 107.776 141.876 107.229C142.582 107.057 142.971 107.209 143.569 107.572C144.11 108.282 144.239 109.334 144.443 110.185C145.761 115.678 146.15 121.515 146.417 127.15C146.906 126.115 147.297 125.111 148.001 124.2C148.659 123.354 149.635 122.713 150.727 122.644C151.279 122.603 151.93 122.815 152.344 123.2C152.771 123.596 152.967 124.288 153.143 124.832C153.766 126.879 153.891 128.817 153.828 130.937C150.999 130.739 148.513 130.043 145.995 128.734C141.464 126.36 137.729 123.182 134.261 119.461C128.407 113.169 123.788 105.521 121.208 97.2993C118.803 89.6225 117.669 80.5632 121.544 73.1392C120.988 76.675 121.197 79.7527 122.261 83.18C122.386 80.1341 123.228 77.125 124.941 74.5506C126.039 72.9186 127.352 71.4232 128.348 69.7227C130.792 65.5846 130.991 61.329 129.83 56.7501C128.28 50.5918 124.364 46.3033 118.965 43.0884C121.577 46.46 124.35 51.263 124.381 55.6543C124.391 57.0443 124.012 58.5282 122.993 59.5285C121.832 60.6469 120.098 60.4415 118.681 59.9488C117.716 59.6174 116.846 58.9857 116.005 58.4263C114.871 57.6976 113.763 56.992 112.585 56.3394C107.997 53.8208 103.338 51.5766 98.5505 49.4744C78.8344 40.8242 57.3689 36.1901 35.837 35.9769Z" fill="url(#paint4_linear_35_126)"/>
<g clip-path="url(#paint5_diamond_35_126_clip_path)" data-figma-skip-parse="true"><g transform="matrix(-0.000535644 0.000977276 0.000977276 0.000535644 218.536 63.5227)"><rect x="0" y="0" width="3019.38" height="3019.38" fill="url(#paint5_diamond_35_126)" opacity="1" shape-rendering="crispEdges"/><rect x="0" y="0" width="3019.38" height="3019.38" transform="scale(1 -1)" fill="url(#paint5_diamond_35_126)" opacity="1" shape-rendering="crispEdges"/><rect x="0" y="0" width="3019.38" height="3019.38" transform="scale(-1 1)" fill="url(#paint5_diamond_35_126)" opacity="1" shape-rendering="crispEdges"/><rect x="0" y="0" width="3019.38" height="3019.38" transform="scale(-1)" fill="url(#paint5_diamond_35_126)" opacity="1" shape-rendering="crispEdges"/></g></g><path d="M218.169 62.0948C217.831 62.2419 217.873 62.1857 217.688 62.3788C217.39 62.7074 216.956 63.2914 217.127 63.6929C217.383 64.2951 218.376 64.654 219.081 64.9414L219.231 64.9336C219.736 64.8427 219.81 64.5365 220.019 64.2341C219.763 63.3403 218.968 62.7553 218.169 62.0948Z" data-figma-gradient-fill="{&#34;type&#34;:&#34;GRADIENT_DIAMOND&#34;,&#34;stops&#34;:[{&#34;color&#34;:{&#34;r&#34;:0.0,&#34;g&#34;:0.0,&#34;b&#34;:0.0,&#34;a&#34;:1.0},&#34;position&#34;:0.52403843402862549},{&#34;color&#34;:{&#34;r&#34;:1.0,&#34;g&#34;:0.70980393886566162,&#34;b&#34;:0.70980393886566162,&#34;a&#34;:1.0},&#34;position&#34;:1.0}],&#34;stopsVar&#34;:[{&#34;color&#34;:{&#34;r&#34;:0.0,&#34;g&#34;:0.0,&#34;b&#34;:0.0,&#34;a&#34;:1.0},&#34;position&#34;:0.52403843402862549},{&#34;color&#34;:{&#34;r&#34;:1.0,&#34;g&#34;:0.70980393886566162,&#34;b&#34;:0.70980393886566162,&#34;a&#34;:1.0},&#34;position&#34;:1.0}],&#34;transform&#34;:{&#34;m00&#34;:-1.0712883472442627,&#34;m01&#34;:1.9545514583587646,&#34;m02&#34;:218.09400939941406,&#34;m10&#34;:1.9545514583587646,&#34;m11&#34;:1.0712883472442627,&#34;m12&#34;:62.009803771972656},&#34;opacity&#34;:1.0,&#34;blendMode&#34;:&#34;NORMAL&#34;,&#34;visible&#34;:true}"/>
<path d="M230.234 71.1159L230.027 71.2093C233.515 73.5091 236.236 76.2265 238.989 79.3439L239.129 79.3248C239.066 79.021 238.983 78.7655 238.862 78.4882C237.363 74.7862 233.784 72.562 230.234 71.1159Z" fill="#FFB5B5"/>
<path d="M214.202 60.3709L214.046 60.6603C214.322 61.6701 214.568 62.7265 215.094 63.6333C216.183 65.5463 218.084 66.3143 220.026 66.8215L220.146 66.669C219.377 65.9998 216.849 64.4427 216.713 63.4594C216.615 62.8005 217.007 62.1612 217.331 61.638C216.324 61.0937 215.264 60.7435 214.202 60.3709Z" fill="#FFB5B5"/>
<path d="M210.619 48.9809L210.551 49.0474C210.743 49.5409 211.289 49.9784 211.654 50.3749C212.359 51.1314 213.077 51.9124 213.862 52.6018C214.971 53.5765 216.177 54.37 217.252 55.3843C219.326 57.3286 221.305 59.4919 222.881 61.9152C223.837 63.3888 224.645 64.9833 225.669 66.3904L225.771 66.5236L225.916 66.3399C225.888 65.8 225.815 65.3003 225.693 64.778C225.431 63.6209 225.128 62.3778 224.586 61.3233C223.765 59.7043 222.44 58.2246 221.174 56.9685C217.989 53.7852 214.346 51.3934 210.619 48.9809Z" fill="#FFB5B5"/>
<path d="M208.977 74.256C208.458 74.209 207.938 74.162 207.425 74.2502C206.9 74.339 206.584 74.5771 206.291 75.0111C206.081 75.33 206.107 75.3533 206.188 75.7063C206.537 77.0803 207.387 78.6255 208.265 79.738C209.914 81.8577 212.517 83.3859 214.387 85.3833C216.992 88.1926 218.81 91.6094 221.658 94.2213C223.419 95.8301 225.456 97.1413 227.571 98.2636C226.366 97.168 224.981 96.2543 223.716 95.2234C221.607 93.4725 219.887 91.455 218.261 89.2972C216.727 87.2085 215.114 85.2963 213.266 83.4826C211.471 81.7154 209.161 80.48 207.824 78.2949C207.382 77.5663 207.127 76.7787 206.884 75.9783L207.035 75.7241C207.426 75.7284 207.916 75.6784 208.266 75.8697C208.5 75.9931 208.666 77.2534 208.745 77.5696C208.895 77.0444 208.944 76.5245 209.221 76.0419C209.396 76.0082 209.571 75.9745 209.748 75.9777C210.215 75.9904 210.634 76.0303 210.98 76.3697C210.909 76.9524 210.8 77.0442 210.445 77.5061C210.759 77.7116 211.417 77.2587 211.886 77.296C211.849 77.5689 211.834 77.7668 211.861 78.0487C212.445 77.6242 212.732 76.8332 213.26 76.3008L213.432 76.4643L213.008 77.7675L213.197 78.0164C213.411 77.9931 213.723 77.9276 213.94 77.978C214.335 78.056 214.444 78.2105 214.674 78.5066C214.227 78.887 214.09 78.9311 213.944 79.5176L214.106 79.7187C214.649 79.4934 214.962 79.4525 215.549 79.57L215.714 79.5984C216.307 78.8654 216.854 78.2088 217.277 77.3738C216.089 76.8441 214.869 76.4269 213.669 75.9223C212.057 75.2544 210.711 74.5973 208.977 74.256Z" fill="#FFB5B5"/>
<path d="M165.769 74.4565L165.448 74.6918C165.03 75.781 164.866 76.8313 164.836 77.9904C164.753 80.3355 165.302 84.0112 167.022 85.7485C167.957 86.7161 168.742 86.7526 169.988 86.778C170.303 86.1829 169.933 84.4915 169.958 83.7185C170.025 82.3002 170.326 80.9342 170.653 79.5539C169.967 79.4351 169.127 79.3371 168.497 79.0611C166.895 78.3467 166.271 75.961 165.769 74.4565Z" fill="#FFB5B5"/>
<path d="M164.591 84.1636C164.338 84.4674 164.307 84.6937 164.271 85.0788C163.965 88.1999 165.722 92.3241 167.938 94.6539C169.331 96.1277 170.99 96.1739 172.949 96.2706L173.079 96.0393C173.785 94.6416 173.023 93.0558 172.569 91.6786C172.082 90.1974 171.568 88.7441 170.969 87.2952L170.77 87.2791C169.518 87.1721 167.771 87.0513 166.744 86.3645C165.908 85.8132 165.224 84.8972 164.591 84.1636Z" fill="#FFB5B5"/>
<path d="M155.002 68.2618C154.174 68.9752 153.409 70.2094 152.823 71.1297C150.047 75.4182 147.731 80.5849 147.266 85.7289C146.967 88.9016 146.999 92.106 147.697 95.227C148.264 97.6967 149.312 100.044 150.488 102.275C153.518 108.054 157.615 112.803 161.738 117.807C167.124 124.354 169.875 132.062 169.062 140.589L169.039 140.846C169.639 139.498 169.625 137.11 169.645 135.609C169.732 128.827 167.179 123.072 163.019 117.826C161.207 115.543 159.195 113.416 157.405 111.108C153.669 106.267 150.599 100.891 149.095 94.923C147.41 88.2813 148.388 81.5017 151.149 75.2879C152.253 72.8293 153.623 70.5762 155.002 68.2618Z" fill="#FFB5B5"/>
<path d="M166.725 94.6639L166.68 94.7024C166.522 95.0841 166.774 95.6013 166.924 95.9791C168.353 99.6044 171.402 102.29 174.84 103.823C176.777 104.687 178.765 105.379 180.794 105.973C181.73 106.238 182.659 106.587 183.609 106.2C183.521 105.422 183.421 104.391 182.914 103.754C182.408 103.106 181.611 102.569 180.97 102.072C179.878 101.22 178.8 100.348 177.736 99.4556C176.488 98.4117 175.373 97.2162 174.236 96.0461L172.862 96.6836C170.664 96.0384 168.685 95.9722 166.725 94.6639Z" fill="#FFB5B5"/>
<path d="M172.059 104.034L171.931 104.23L172.695 105.197C176.188 109.255 181.88 111.779 186.913 113.673C189.008 114.464 190.991 115.25 193.244 115.476C193.58 114.701 193.779 113.945 193.548 113.116C193.053 111.294 190.026 108.728 188.348 107.761L188.129 107.642C186.852 106.926 185.197 107.379 183.765 107.063C179.849 106.188 175.978 104.979 172.059 104.034Z" fill="#FFB5B5"/>
<path d="M43.5505 41.2641L43.2668 41.2543C44.5226 41.7284 45.9008 41.9511 47.1975 42.2638C49.0421 42.6951 50.8756 43.1516 52.7092 43.608C58.4328 45.0026 64.1756 46.5309 69.7838 48.3113C79.3476 51.3451 88.6466 55.4464 97.0226 60.9804C102.122 64.3435 107.298 68.4747 110.156 73.9759C106.528 74.5316 102.731 76.1008 99.2748 77.3583C83.8056 82.9637 69.2347 90.226 55.7622 99.6739C53.2193 101.448 50.6118 103.164 48.2405 105.162L48.3193 105.255C59.9264 97.3503 72.2985 90.9005 85.6192 86.3623C88.4747 85.3933 91.3418 84.4114 94.2695 83.647C98.8371 82.4544 103.475 81.6627 108.156 81.0034C105.42 82.8486 103.012 85.0812 100.629 87.3369C94.6674 92.9889 89.5401 99.0632 84.8516 105.764C81.4815 110.583 78.6521 115.62 76.0054 120.855C71.818 129.147 68.3165 137.846 66.0632 146.872C65.7678 148.063 65.4855 149.267 65.2024 150.458C65.0811 150.967 64.851 151.518 64.939 152.028L69.4039 138.635C76.3212 122.199 86.0443 106.683 99.4736 94.7373C102.992 91.6016 106.859 88.5214 111.124 86.4745C112.067 89.4648 112.73 92.5308 113.649 95.5223C115.576 101.819 117.723 108.338 120.639 114.24C124.106 121.267 128.996 127.961 134.365 133.664C137.843 137.356 141.556 141.048 145.893 143.728L146.001 143.661L139.256 137.528C127.915 125.861 119.751 110.867 116.657 94.8885C115.867 90.7997 115.322 86.6981 115.401 82.5275C115.484 78.4301 116.378 73.58 118.774 70.1594C119.771 68.723 121.038 67.5298 122.306 66.3245C121.081 66.4492 119.768 66.5295 118.578 66.8608C117.474 67.1631 116.429 67.6829 115.408 68.177C108.614 63.235 101.356 58.599 93.7802 54.9598C78.1607 47.4483 60.6081 43.7379 43.5505 41.2641Z" fill="#FFB5B5"/>
</g>
<g clip-path="url(#clip2_35_126)">
<path d="M265 219C265 252.137 238.137 279 205 279L25 279C25 245.863 51.8629 219 85 219L265 219Z" fill="#FFB5B5"/>
<path d="M184.793 274.973C183.517 275.144 182.081 275.963 180.899 276.456C178.459 277.484 176.017 278.46 173.518 279.347C172.218 279.807 171.012 280.327 169.649 280.567C172.357 281.237 175.083 281.762 177.864 281.879C180.215 282.097 182.654 281.801 184.996 281.614C182.015 281.129 178.937 280.256 176.265 278.787L184.793 274.973Z" fill="url(#paint6_linear_35_126)"/>
<path d="M139.938 284.05L139.934 284.198C141.11 285.153 142.598 285.921 143.951 286.627C148.315 288.867 152.8 290.244 157.696 290.846C155.901 289.866 154.308 288.887 152.699 287.612L150.569 285.428L159.227 284.214C154.377 283.804 149.492 284.331 144.636 284.263C143.068 284.241 141.48 284.278 139.938 284.05Z" fill="url(#paint7_linear_35_126)"/>
<path d="M109.639 274.044L109.51 274.158C111.347 279.346 115.856 284.121 120.39 287.237C122.13 288.447 124.031 289.434 125.829 290.569C125.212 289.539 124.368 288.617 123.656 287.64C122.601 286.18 121.705 284.736 120.888 283.133L119.493 280.093C123.081 280.551 126.553 281.861 130.178 282.091C127.825 281.104 125.436 280.393 123.03 279.564C118.429 277.989 113.932 276.29 109.639 274.044Z" fill="url(#paint8_linear_35_126)"/>
<path d="M90.3982 258.641C90.4766 260.842 90.5663 263.029 90.9864 265.187C91.806 269.334 93.8341 273.236 96.4786 276.448C97.8831 278.153 99.5277 279.687 101.102 281.238C98.8096 277.727 97.7546 274.53 97.1828 270.358L97.0118 267.518C99.6943 269.632 103.264 271.7 106.536 272.614C103.957 270.884 101.379 269.203 98.943 267.259C95.8009 264.743 92.9101 261.811 90.3982 258.641Z" fill="url(#paint9_linear_35_126)"/>
<path d="M79.4059 225.449C78.8067 225.89 78.3017 226.897 77.906 227.514C75.2068 231.689 73.4638 236.064 72.7177 240.92C71.4638 248.982 73.6923 258.478 78.7617 265.032C77.328 261.121 77.6751 257.067 79.0955 253.218C79.964 251.224 81.085 249.601 82.7449 248.124C83.5483 249.374 84.1642 250.758 84.9437 252.046C86.3334 254.358 88.3326 256.428 90.357 258.235C89.1506 256.46 87.7303 254.808 86.6124 252.99C81.3085 244.412 79.9122 235.22 79.4059 225.449Z" fill="url(#paint10_linear_35_126)"/>
<path d="M87.1876 197.072C79.2496 199.406 72.9679 205.246 68.5566 211.732C64.7223 217.372 61.6505 223.995 61.1702 230.703C61.0849 231.803 60.9672 233.026 61.2173 234.109C62.8064 229.328 66.0611 224.984 70.3691 221.997C72.355 220.628 74.4903 219.398 77.0208 219.303C77.8858 219.27 78.7861 219.418 79.6334 219.545C81.0323 211.84 83.1866 203.986 87.1876 197.072Z" fill="url(#paint11_linear_35_126)"/>
<path d="M35.837 32.9769C34.0102 32.8869 32.0863 33.0605 30.2567 33.1553C23.2843 33.5535 16.5245 34.7282 10.0381 37.3777C11.7793 37.0045 13.5172 36.8037 15.3137 36.7844C25.7238 36.6756 35.5196 41.5823 42.8255 48.8083C45.888 51.8366 48.572 55.4013 49.762 59.5972C52.7361 70.1855 44.6514 83.8078 38.5617 91.974C34.1178 97.9262 28.9694 103.349 24.488 109.291C21.8964 112.735 19.3566 116.706 17.5536 120.638C15.3181 125.492 14.5366 130.368 14.5528 135.671C15.3615 132.27 16.4704 129.197 18.3857 126.243C21.5318 121.38 25.9352 118.211 31.5971 116.994C24.7632 130.995 18.7738 145.85 17.8036 161.577C17.4779 166.934 17.6381 172.402 18.5158 177.697C20.327 188.653 24.8179 199.052 30.7792 208.365C33.2168 212.164 35.962 215.96 38.968 219.323C35.4217 212.899 32.2877 206.589 30.6213 199.378C27.34 185.238 31.3483 170.165 38.8688 158.012C42.2661 152.532 48.0744 146.3 54.5579 144.783L55.456 145.721C56.4115 146.816 57.0416 148.284 57.5665 149.623C59.5615 154.86 59.9513 160.956 60.0914 166.51C60.1347 168.058 60.2542 169.652 60.1618 171.195C60.809 169.192 61.2683 167.126 61.9272 165.111C64.316 157.752 68.0855 150.665 74.1441 145.7C80.3566 140.616 87.6289 138.64 95.5503 139.447C94.8465 141.071 93.8907 142.585 93.2128 144.232C91.076 149.326 90.4577 154.502 89.8528 159.935C90.3771 158.887 90.8627 157.803 91.4878 156.799C93.6264 153.403 96.6538 150.526 100.241 148.716C105.304 146.153 110.703 145.799 116.077 147.588C123.28 149.983 129.673 156.457 132.974 163.14C134.777 166.799 135.53 170.403 135.556 174.474C135.573 175.987 135.502 177.713 135.011 179.154C135.479 175.118 134.755 170.418 133.268 166.668C130.49 159.626 124.757 154.238 117.88 151.248C113.502 151.819 108.991 152.68 104.961 154.513C107.012 154.161 108.935 153.741 111.027 153.965C112.749 154.159 114.412 154.897 115.482 156.294C116.566 157.739 116.288 159.021 116.041 160.67L115.843 160.656C104.123 159.946 91.6881 164.467 82.8905 172.17C83.8137 171.692 84.7595 171.175 85.7518 170.841C89.5132 169.539 94.1362 168.942 97.8174 170.843C99.7403 171.839 100.347 173.333 100.965 175.27C103.216 172.631 105.693 170.287 108.256 167.964C112.16 164.415 116.094 161.221 120.632 158.5C121.718 157.853 123.242 156.839 124.486 156.615C124.864 156.546 124.893 156.631 125.176 156.862C124.714 157.686 121.413 159.567 120.416 160.271C119.146 161.186 117.903 162.161 116.686 163.135C101.564 175.19 88.7422 191.248 83.3389 210.047C80.5241 219.877 79.9919 229.564 82.063 239.596C82.9016 243.663 84.1287 247.623 86.1644 251.27C94.0242 265.383 110.095 274.973 125.317 279.328C135.477 282.234 146.649 283.292 157.171 282.021C165.418 281.027 173.47 278.653 181.165 275.572C184.132 274.385 187.327 273.321 190.128 271.773C187.854 272.309 185.316 272.527 182.984 272.426C189.362 271.234 196.232 268.86 201.727 265.389C204.016 263.941 206.081 262.21 208.093 260.407C204.59 261.943 201.797 261.989 198.109 261.146C201.316 258.396 204.534 255.633 207.027 252.194C209.061 249.381 210.603 245.88 211.539 242.559C211.871 241.36 212.051 240.096 212.284 238.878L211.123 240.956C209.71 243.146 208.315 244.264 205.722 244.829C203.274 248.66 200.636 252.168 197.391 255.351C197.339 255.071 197.776 254.703 197.961 254.472C201.222 250.649 204.183 246.73 206.461 242.219C207.644 239.857 208.32 237.225 208.814 234.64C209.715 229.93 209.934 225.378 209.245 220.627C209.047 219.185 208.859 217.694 208.394 216.315C208.431 218.934 208.61 221.915 207.617 224.378C207.019 225.898 206.201 226.753 204.733 227.407C204.431 223.473 204.027 219.482 203.089 215.642C202.322 212.47 201.168 209.454 199.868 206.47C205.331 204.021 210.935 201.454 217.038 201.384C226.734 201.263 234.978 206.41 241.647 212.98C237.658 213.457 233.926 213.195 229.957 212.613L233.671 214.919C239.3 218.774 243.646 224.701 244.896 231.491C246.406 239.718 243.648 247.786 238.997 254.499C240.682 253.046 242.464 251.563 243.955 249.911C249.763 243.433 253.206 234.801 254.6 226.3C255.694 219.623 255.423 212.967 252.335 206.827C250.782 203.708 248.717 200.924 246.688 198.112C247.768 200.665 248.511 203.125 248.704 205.896C248.756 206.668 248.865 207.573 248.571 208.314L248.483 208.528C248.078 209.496 247.279 210.239 246.568 211.002L246.395 210.765C240.41 202.166 231.921 196.355 221.558 194.517C215.731 193.49 209.672 193.952 203.947 195.368C201.091 196.082 198.153 196.887 195.487 198.182C190.226 200.731 185.542 204.653 181.667 209C178.713 212.328 176.129 215.932 173.38 219.421C167.789 226.516 162.066 233.445 154.578 238.632C146.972 243.899 137.309 246.319 128.122 244.605C123.15 243.681 119.146 241.268 116.231 237.038C118.361 238.933 120.342 240.812 122.976 242.004C129.292 244.852 137.997 244.856 144.455 242.38C141.559 243.035 138.444 243.024 135.511 242.733C132.466 242.435 129.532 241.874 126.777 240.503C122.72 238.474 120.34 235.078 118.939 230.856L119.137 230.636L119.896 230.782C120.17 230.62 120.152 230.732 120.077 230.489C119.466 228.429 118.828 226.333 119.793 224.278C120.468 222.828 121.686 221.374 123.222 220.839C123.52 220.885 123.78 220.921 124.086 220.881C124.327 219.355 124.484 217.87 125.401 216.567C126.365 215.213 127.714 214.158 129.043 213.191C129.636 212.755 130.227 212.281 130.958 212.145C131.457 212.254 131.735 212.4 132.144 212.698C132.349 212.848 132.224 212.805 132.493 212.779C132.731 211.905 132.939 210.922 133.378 210.137C133.919 209.173 134.947 208.566 135.84 207.991C138.498 206.29 141.14 205.243 144.188 204.433C144.16 206.268 144.272 207.96 144.539 209.78L145.339 203.598C146.464 197.276 149.395 189.926 154.849 186.124L154.803 185.954C154.395 184.253 154.171 182.542 154.289 180.788C154.529 177.343 155.552 173.783 157.52 170.912C158.436 169.572 159.643 168.39 160.816 167.271C160.149 168.425 159.356 169.512 158.765 170.7C156.252 175.654 155.622 181.088 156.495 186.531C152.433 190.335 149.017 194.265 147.427 199.712C146.915 201.461 146.675 203.246 146.46 205.041C147.936 202.639 149.305 201.018 151.847 199.705C151.19 202.716 150.908 205.586 150.599 208.654C150.311 211.646 150.021 214.602 149.907 217.623C150.457 216.364 150.832 215.04 151.332 213.759C152.258 211.435 153.394 209.37 155.072 207.523C155.08 209.11 155.05 210.675 154.688 212.232C153.597 216.853 150.179 220.501 147.749 224.453C149.515 222.885 151.086 221.143 152.982 219.715C154.831 218.328 156.828 217.19 158.743 215.898C162.563 213.337 164.342 209.898 166.606 206.064C165.913 209.324 164.743 212.4 162.612 215.008C161.918 215.868 161.083 216.613 160.363 217.463C164.026 215.205 167.355 211.969 169.373 208.136C170.146 206.669 170.553 203.596 171.872 202.666L172.125 202.801C172.318 205.104 170.778 207.226 169.683 209.129C172.117 206.689 173.107 204.165 174.11 200.95C176.631 199.479 179.124 198.168 181.376 196.255C182.532 195.272 183.432 194.106 184.445 192.983C186.355 190.878 188.395 189.849 191.042 188.912C192.368 189.545 194.218 190.803 195.735 190.367C196.292 190.203 196.777 189.821 197.339 189.73C197.632 189.691 197.875 189.629 198.167 189.552C198.317 189.606 198.394 189.651 198.555 189.667C199.101 189.75 199.619 189.538 200.071 189.232C200.749 188.778 201.407 187.698 201.526 186.892C201.569 186.546 201.479 186.476 201.281 186.204L200.947 186.172L200.123 187.15L197.738 187.458C197.737 186.474 197.825 185.558 197.971 184.591C199.025 184.487 200.105 184.419 201.096 184.072C202.282 183.678 203.337 182.873 204.452 182.311L205.286 182.957C207.318 184.636 208.189 187.175 208.432 189.734C208.85 188.051 209.232 186.161 209.179 184.429C209.148 183.114 208.787 181.606 207.945 180.567C207.484 180 206.87 179.552 206.363 179.025C205.895 178.557 205.435 177.99 204.934 177.585C203.071 176.095 201.793 179.225 200.112 179.337C199.873 178.992 199.819 178.909 199.822 178.478C199.823 177.321 200.793 176.077 201.615 175.321C202.298 174.707 203.072 174.212 204.033 174.224C204.599 174.219 205.135 174.573 205.672 174.729C206.309 174.905 206.975 174.92 207.629 174.948C208.348 175.993 208.732 177.229 209.163 178.412C209.409 176.751 209.427 175.199 209.365 173.517C210.271 173.667 211.238 173.801 212.072 174.201C213.776 175.023 214.242 176.648 214.796 178.305C214.882 176.405 214.883 174.523 214.053 172.757C213.415 171.375 211.862 169.45 210.335 168.963C209.271 168.624 208.693 168.863 207.756 169.318C206.237 169.95 205.26 167.724 203.928 167.437C203.081 167.259 202.419 168.499 201.804 168.974C201.378 169.304 200.898 169.562 200.445 169.832C198.881 170.774 198.062 171.617 197.614 173.412C196.051 174.859 194.716 176.171 194.036 178.261C193.759 179.1 193.681 179.965 193.467 180.813L193.395 181.087C191.558 182.708 189.148 183.719 186.861 184.49C183.195 185.726 179.428 186.462 175.602 186.981C173.768 187.223 171.832 187.41 170.06 187.895C165.945 189.044 162.877 192.082 160.365 195.387C161.529 191.488 164.569 187.909 168.018 185.799C169.998 184.576 172.185 183.528 174.005 182.055C175.352 180.976 176.299 179.758 177.335 178.376C176.878 179.298 176.402 180.319 175.754 181.128C173.95 183.387 171.136 184.677 168.994 186.585C169.777 186.237 170.617 185.824 171.457 185.633C173.051 185.279 174.818 185.397 176.455 185.152C179.008 184.761 181.621 184.109 184.123 183.451C186.419 182.852 188.961 182.24 191.04 181.037L190.958 180.869C186.309 182.624 181.763 183.757 176.837 184.443C180.526 179.847 183.366 175.024 183.373 168.969C183.371 163.949 182.15 158.906 178.465 155.282C176.039 152.885 173.127 151.806 169.708 151.884C165.317 151.976 161.331 154.398 158.259 157.363C157.074 158.495 156.045 159.778 154.913 160.981C157.037 157.315 159.885 153.341 163.696 151.334C167.22 149.491 171.565 148.515 175.447 149.778C179.065 150.944 181.385 154.368 183.055 157.604C186.299 163.896 185.378 171.068 183.301 177.562C185.209 174.227 186.527 169.963 186.77 166.111C186.849 164.778 186.728 163.381 186.67 162.043C187.942 160.205 188.765 158.514 189.342 156.343C190.56 157.978 191.342 160.004 192.068 161.911C193.11 164.675 194.281 167.789 194.031 170.792L194.009 171.088C193.808 173.621 192.669 175.871 191.274 177.949L192.592 176.773L192.768 176.592L193.073 176.773C193.409 176.62 193.611 176.006 193.779 175.678C194.352 174.615 194.937 173.551 195.573 172.521C196.379 171.212 197.828 169.709 199.072 168.771C199.678 168.334 200.387 168.002 200.938 167.481C202.417 166.075 203.516 164.246 204.521 162.484C207.51 157.21 209.375 151.625 209.427 145.507C209.569 130.414 201.86 115.186 190.507 105.413C188.523 103.707 186.479 102.029 184.39 100.451C181.764 98.4829 179.084 96.6652 176.783 94.3112C173.364 90.8214 170.902 85.8301 171.013 80.853C171.069 78.1307 172.261 75.2265 174.102 73.2115C174.999 72.2421 176.077 71.411 177.027 70.5004C174.03 72.0708 172.164 73.8287 170.647 76.8728C169.682 76.7752 168.619 76.7072 167.95 75.9051C166.911 74.6177 167.035 72.7409 167.251 71.2039C167.491 69.4195 168.38 67.3308 169.9 66.2553C171.765 64.9405 174.049 66.2618 176.002 66.6405L176.251 66.6892C179.335 67.28 182.882 66.5917 186.052 66.7104L185.639 66.8179C181.476 67.9811 177.571 70.3123 175.417 74.1154C178.11 73.8159 180.893 73.3641 183.552 72.8695C187.296 72.1832 191.006 71.3265 194.834 71.768C189.879 72.3693 185.22 73.226 180.65 75.3209C179.051 76.0559 177.511 76.997 175.954 77.8284C176.478 77.9735 178.082 77.0905 178.687 76.8869C179.74 76.537 180.861 76.3066 181.956 76.053C185.217 75.3057 188.291 74.9987 191.627 74.9859L180.757 83.0922C183.981 81.8669 187.162 80.533 190.531 79.7309C192.756 79.1972 195.12 78.964 197.384 78.6867C196.49 79.0283 195.522 79.1154 194.584 79.3117C193.44 79.5556 192.287 79.886 191.144 80.1667C196.624 80.4242 202.672 80.7137 207.503 83.6505C210.821 85.6688 214.954 89.4169 215.885 93.3555C216.374 95.4343 216.205 96.6859 215.092 98.4786L215.176 98.6834C216.964 98.7262 218.04 98.1167 219.48 97.1561C219.912 97.8843 220.28 98.5789 220.459 99.4187C221.03 102.121 219.779 104.351 218.365 106.529C220.457 105.313 222.225 104.274 223.647 102.256C223.991 101.771 224.894 99.9395 225.306 99.8197C225.634 99.7289 226.043 99.7938 226.335 99.951C226.371 100.171 226.407 100.39 226.394 100.612C226.367 102.718 225.239 103.982 223.872 105.419C225.045 105.001 226.13 104.551 227.032 103.668C229.083 101.667 229.798 99.3039 229.825 96.497C230.829 95.2144 231.875 94.0036 232.395 92.4138C232.787 91.1876 233.454 88.3721 232.852 87.2097C232.608 88.9204 232.187 90.2836 230.753 91.3669C229.912 92.0134 228.854 92.4989 227.776 92.3579C227.485 91.9792 227.978 89.8495 227.902 89.1028C227.849 88.5395 227.679 88.1176 227.255 87.7705C226.99 88.8424 227.575 89.9073 227.12 91.1121C226.72 91.4774 226.643 91.6414 226.093 91.7191L225.933 91.4813L226.851 90.437L226.772 90.3303C226.335 90.4637 226.2 90.6922 225.947 91.0498C225.809 91.2416 225.758 91.2073 225.54 91.2678L225.379 91.0177L225.964 90.1753L225.829 89.9485L225.484 90.1879C225.35 89.9856 225.287 89.952 225.084 89.8272L224.518 90.3118L224.381 90.282C224.366 89.9874 224.355 89.7788 224.242 89.5016C223.977 88.9001 224.462 87.8167 224.439 87.1288C224.434 86.7969 224.381 86.4797 224.146 86.2334C223.901 86.9598 223.828 88.1695 223.88 88.942C223.894 89.212 223.907 89.2236 223.798 89.4877C223.354 89.2277 223.642 88.8559 223.29 88.4681C222.946 88.7198 222.781 88.8637 222.35 88.8614C222.356 88.5042 222.532 88.3351 222.714 88.0427L222.581 87.8527C222.224 88.0927 222.048 88.274 221.605 88.2724C221.537 87.9191 221.49 87.7123 221.546 87.3649C221.613 86.9923 221.612 87.2261 221.555 86.8353L220.959 86.9646L220.863 86.785L221.339 85.5175L221.097 85.3578L220.595 85.6423L220.363 85.4573L220.909 84.8261L220.833 84.547C220.346 84.8922 219.851 85.0778 219.296 85.2912L219.018 85.1456C218.953 84.6076 219.223 84.3598 219.483 83.9033C219.474 83.4977 219.56 83.4933 219.261 83.1888C218.94 83.4146 218.738 83.5482 218.347 83.6053C218.702 82.8609 219.143 82.5797 219.604 81.9651L219.408 81.7415C218.774 82.1066 217.969 82.4928 217.209 82.3108C217.883 80.8361 218.778 79.5715 219.363 78.04L217.811 79.6709L217.712 79.6637L217.562 79.3884L216.98 79.8L216.787 79.6378L217.392 78.2528L217.111 78.0582L216.303 78.3708L216.099 78.246C216.21 77.7604 216.692 77.5754 216.995 77.2398C217.275 76.93 217.283 76.8557 217.264 76.4876C216.916 76.6656 216.758 76.7106 216.362 76.6696L216.41 76.4087C216.683 76.21 217.029 75.9952 217.237 75.7261C217.514 75.3672 217.539 74.9106 217.841 74.5627C218.232 74.727 218.572 74.8817 218.94 75.0964L218.823 75.9269C219.215 76.6079 219.225 77.2719 219.277 78.0321C219.686 77.1373 219.032 76.1621 219.68 75.3656C220.593 75.6383 221.904 76.6901 222.674 77.3024C223.166 78.4828 222.835 80.1734 222.902 81.462C223.428 80.9179 223.438 78.0257 223.565 77.1455C224.263 77.5523 224.997 77.9449 225.593 78.5047C225.697 79.8036 224.989 80.4063 224.202 81.3577C224.747 80.948 225.779 80.2054 226.016 79.5533L226.09 79.3034C226.433 79.2733 226.252 79.5903 226.618 79.7682C226.623 79.3865 226.558 79.0822 226.776 78.7633L227.004 78.8991C227.258 79.046 227.458 79.0971 227.644 79.3582C227.831 79.6438 227.884 79.961 227.79 80.2858C227.695 80.5861 227.688 80.6849 227.4 80.8352C227.281 80.4353 227.224 80.0445 227.165 79.6168C227.025 80.2516 227.045 80.8659 227.053 81.5053C226.906 81.759 226.77 81.9753 226.711 82.2736L226.845 82.2298C227.925 81.7062 228.374 80.6247 228.739 79.5845C230.219 80.1107 231.635 80.8249 232.868 81.807L231.592 85.4539C232.399 84.1692 233.037 83.1763 234.164 82.1212C234.885 82.4899 235.653 82.807 236.131 83.4836C237.035 84.7658 236.715 86.1974 236.419 87.6155C237.061 86.7086 237.544 85.7976 238.008 84.7891L238.095 85.0307C239.247 88.0227 239.216 91.9373 238.203 94.9554C241.159 92.3658 243.23 88.85 244.092 85.0522L245.976 85.7667C246.399 83.9606 246.316 82.3529 246.123 80.5294C246.061 80.0527 245.906 79.4455 245.943 78.9637C245.967 78.7041 246.159 78.3865 246.219 78.1127C246.549 76.6435 246.518 75.3285 245.988 73.8917C245.302 72.0568 244.193 71.3268 242.515 70.5401C242.846 71.2366 243.357 72.0592 243.507 72.8143C243.623 73.3989 243.353 73.8928 243.045 74.3641L242.772 74.3167C242.08 74.0326 241.075 72.928 240.447 72.4561C237.079 69.9481 232.001 67.2211 230.865 62.887C230.483 61.4548 231.78 60.1079 231.412 58.9334C231.206 58.2919 230.523 57.6997 230.055 57.2317C228.715 55.8369 227.27 54.5582 225.836 53.2666C225.204 52.7087 224.457 51.8368 223.713 51.5062C222.806 51.098 221.957 50.1575 221.208 49.4949C219.892 48.3326 218.591 47.2065 217.194 46.1468C214.414 44.0513 211.482 42.1237 208.588 40.2064C207.147 39.2474 205.677 38.4376 204.315 37.3515L206.735 38.4197C204.459 34.6615 200.442 31.7319 196.198 30.6229C197.376 32.2107 199.072 33.5748 200.463 35.0039C204.367 39.0592 206.524 43.6111 208.263 48.9106L199.441 46.8821C195.971 43.8257 192.416 41.2659 188.145 39.3953C183.308 37.2834 178.035 36.4984 173.671 33.3037C172.187 32.2239 170.847 30.8413 169.502 29.5821C170.36 31.1865 171.217 32.7541 172.35 34.172C175.521 38.1176 180 40.9248 184.249 43.5595C186.349 44.878 188.547 46.1915 190.37 47.8813C187.606 46.3264 184.683 45.0382 181.929 43.4582C178.744 41.6175 175.953 39.3257 173.228 36.8705C174.984 40.5818 177.343 44.7664 180.111 47.81C182.056 49.9487 184.337 51.6763 186.826 53.1347C188.527 54.1294 190.394 54.7463 192.07 55.7423L192.236 55.8445C190.938 55.5057 189.642 55.2037 188.284 55.1387C185.198 54.9909 181.837 55.9403 178.988 57.0354C182.82 57.3168 186.37 57.8712 190.081 58.9217C191.979 59.4509 193.731 59.9877 195.478 60.9184C192.511 60.2108 189.637 59.3999 186.608 58.917C184.87 58.6379 183.161 58.4435 181.406 58.3129C179.886 58.1948 178.321 58.1652 176.834 57.75C175.473 57.3776 174.183 56.7184 172.908 56.1077C176.296 60.202 181.032 63.9189 186.103 65.5511C184.919 65.5263 183.701 65.5279 182.531 65.2809C181.187 65.006 180.049 64.4374 178.869 63.7602C174.136 61.0522 171.799 56.805 168.983 52.3611C171.633 54.3157 174.662 56.4598 178.154 55.6636C180.637 55.1043 182.771 54.2308 185.356 53.9983C179.917 51.4377 176.324 47.4279 173.504 42.1966C164.389 45.1915 155.612 50.6914 149.703 58.3069C139.686 71.2295 137.356 88.5158 146.204 102.676C149.479 107.908 153.796 112.348 156.344 118.036C157.123 119.768 157.794 121.554 158.029 123.462C158.685 128.99 156.775 133.961 153.365 138.248C154.641 135.782 155.967 133.339 156.514 130.579C158.729 119.402 149.62 111.58 144.451 102.828C142.008 98.6972 140.331 94.1205 139.556 89.3863C137.808 78.6976 141.101 67.6369 147.373 58.9567C152.185 52.2718 158.627 47.3359 166.016 43.8152C168.119 42.8202 170.295 41.8092 172.615 41.4306C172.793 41.5444 172.946 41.6349 173.146 41.6984C173.104 41.1345 172.791 40.5478 172.579 40.0297C172.182 39.0166 171.785 38.0036 171.412 36.9892C170.622 34.803 170.2 32.3638 169.29 30.2575C168.955 29.4874 168.441 28.825 167.927 28.1748L170.286 36.1739C167.985 35.9609 165.79 36.6038 163.624 37.319C164.647 37.3398 165.558 37.3541 166.515 37.7598C167.636 38.2432 168.588 38.7968 169.055 39.9785C169.011 40.0669 169.004 40.178 168.946 40.2425C168.911 40.2813 168.848 40.2476 168.799 40.2502C167.691 40.2583 166.598 40.315 165.507 40.3961C158.138 40.9872 150.79 42.217 143.601 43.8939C139.951 44.7352 136.217 45.6177 132.832 47.2944C136.212 46.4793 139.148 46.118 142.34 47.8353C145.265 49.4064 146.721 51.6074 147.646 54.7219C139.46 58.3085 132.597 64.8659 127.029 71.6885C127.97 71.086 128.891 70.5584 129.956 70.1956C133.355 69.035 136.637 69.1726 139.847 70.7659C138.908 72.1312 137.841 73.4046 136.916 74.7938C133.787 79.5089 131.099 84.4225 129.058 89.6965C127.994 92.4587 127.193 95.2935 126.392 98.1282L127.615 96.0714C129.458 93.1458 132.933 89.8771 136.43 89.1668C137.003 89.0633 137.45 89.1263 137.933 89.4334C138.02 91.3485 137.377 93.6706 137.059 95.6067C136.212 100.893 135.219 106.198 135.387 111.567C135.773 110.476 136.159 109.373 136.76 108.37C137.891 106.441 139.639 104.776 141.876 104.229C142.582 104.057 142.971 104.209 143.569 104.572C144.11 105.282 144.239 106.334 144.443 107.185C145.761 112.678 146.15 118.515 146.417 124.15C146.906 123.115 147.297 122.111 148.001 121.2C148.659 120.354 149.635 119.713 150.727 119.644C151.279 119.603 151.93 119.815 152.344 120.2C152.771 120.596 152.967 121.288 153.143 121.832C153.766 123.879 153.891 125.817 153.828 127.937C150.999 127.739 148.513 127.043 145.995 125.734C141.464 123.36 137.729 120.182 134.261 116.461C128.407 110.169 123.788 102.521 121.208 94.2993C118.803 86.6225 117.669 77.5632 121.544 70.1392C120.988 73.675 121.197 76.7527 122.261 80.18C122.386 77.1341 123.228 74.125 124.941 71.5506C126.039 69.9186 127.352 68.4232 128.348 66.7227C130.792 62.5846 130.991 58.329 129.83 53.7501C128.28 47.5918 124.364 43.3033 118.965 40.0884C121.577 43.46 124.35 48.263 124.381 52.6543C124.391 54.0443 124.012 55.5282 122.993 56.5285C121.832 57.6469 120.098 57.4415 118.681 56.9488C117.716 56.6174 116.846 55.9857 116.005 55.4263C114.871 54.6976 113.763 53.992 112.585 53.3394C107.997 50.8208 103.338 48.5766 98.5505 46.4744C78.8344 37.8242 57.3689 33.1901 35.837 32.9769Z" fill="url(#paint12_linear_35_126)"/>
<path d="M125.672 180.608C125.01 180.948 124.336 181.765 123.794 182.282C120.944 185.009 118.216 187.937 115.755 191.023C106.621 202.472 99.8194 217.431 101.651 232.273C102.843 241.904 109.606 251.015 117.201 256.843C123.019 261.308 130.185 264.836 137.238 266.878C139.697 267.594 142.33 268.069 144.862 268.512C151.074 269.596 157.199 269.963 163.474 269.186C173.998 267.858 185.216 263.928 191.912 255.293C199.768 245.169 200.559 230.852 198.999 218.648C198.527 215.25 197.951 212.016 196.867 208.748C190.373 212.715 186.506 219.662 182.654 225.949C180.593 229.344 178.495 232.74 176.305 236.044C174.117 239.372 171.494 242.662 168.817 245.636C159.196 256.28 146.811 262.96 132.277 263.701C130.773 263.779 129.278 262.829 127.994 262.138C124.054 260.057 120.428 257.592 117.122 254.61C112.063 250.007 107.739 244.315 105.487 237.831C104.251 234.253 103.707 230.431 103.548 226.662C102.953 213.015 109.949 199.428 118.255 188.938C120.576 186.018 123.144 183.343 125.672 180.608Z" fill="#FFB5B5"/>
</g>
<defs>
<clipPath id="paint5_diamond_35_126_clip_path"><path d="M218.169 62.0948C217.831 62.2419 217.873 62.1857 217.688 62.3788C217.39 62.7074 216.956 63.2914 217.127 63.6929C217.383 64.2951 218.376 64.654 219.081 64.9414L219.231 64.9336C219.736 64.8427 219.81 64.5365 220.019 64.2341C219.763 63.3403 218.968 62.7553 218.169 62.0948Z"/></clipPath><linearGradient id="paint0_linear_35_126" x1="83.7855" y1="177.956" x2="84.6828" y2="195.273" gradientUnits="userSpaceOnUse">
<stop stop-color="#D40000"/>
<stop offset="1" stop-color="#6E0000"/>
</linearGradient>
<linearGradient id="paint1_linear_35_126" x1="127.146" y1="28.12" x2="140.357" y2="283.061" gradientUnits="userSpaceOnUse">
<stop stop-color="#D40000"/>
<stop offset="1" stop-color="#6E0000"/>
</linearGradient>
<linearGradient id="paint2_linear_35_126" x1="200.409" y1="2.24352" x2="203.001" y2="52.2697" gradientUnits="userSpaceOnUse">
<stop stop-color="#D40000"/>
<stop offset="1" stop-color="#6E0000"/>
</linearGradient>
<linearGradient id="paint3_linear_35_126" x1="182.611" y1="3.16561" x2="185.103" y2="51.2677" gradientUnits="userSpaceOnUse">
<stop stop-color="#D40000"/>
<stop offset="1" stop-color="#6E0000"/>
</linearGradient>
<linearGradient id="paint4_linear_35_126" x1="127.146" y1="31.12" x2="140.357" y2="286.061" gradientUnits="userSpaceOnUse">
<stop stop-color="#D40000"/>
<stop offset="1" stop-color="#6E0000"/>
</linearGradient>
<linearGradient id="paint5_diamond_35_126" x1="0" y1="0" x2="500" y2="500" gradientUnits="userSpaceOnUse">
<stop offset="0.524038"/>
<stop offset="1" stop-color="#FFB5B5"/>
</linearGradient>
<linearGradient id="paint6_linear_35_126" x1="177.097" y1="275.372" x2="177.446" y2="282.106" gradientUnits="userSpaceOnUse">
<stop stop-color="#D40000"/>
<stop offset="1" stop-color="#6E0000"/>
</linearGradient>
<linearGradient id="paint7_linear_35_126" x1="149.546" y1="283.552" x2="149.945" y2="291.248" gradientUnits="userSpaceOnUse">
<stop stop-color="#D40000"/>
<stop offset="1" stop-color="#6E0000"/>
</linearGradient>
<linearGradient id="paint8_linear_35_126" x1="119.606" y1="273.528" x2="120.503" y2="290.845" gradientUnits="userSpaceOnUse">
<stop stop-color="#D40000"/>
<stop offset="1" stop-color="#6E0000"/>
</linearGradient>
<linearGradient id="paint9_linear_35_126" x1="98.0744" y1="258.244" x2="99.2709" y2="281.333" gradientUnits="userSpaceOnUse">
<stop stop-color="#D40000"/>
<stop offset="1" stop-color="#6E0000"/>
</linearGradient>
<linearGradient id="paint10_linear_35_126" x1="79.9749" y1="225.42" x2="82.0188" y2="264.864" gradientUnits="userSpaceOnUse">
<stop stop-color="#D40000"/>
<stop offset="1" stop-color="#6E0000"/>
</linearGradient>
<linearGradient id="paint11_linear_35_126" x1="73.238" y1="197.795" x2="75.0825" y2="233.39" gradientUnits="userSpaceOnUse">
<stop stop-color="#D40000"/>
<stop offset="1" stop-color="#6E0000"/>
</linearGradient>
<linearGradient id="paint12_linear_35_126" x1="127.146" y1="28.12" x2="140.357" y2="283.061" gradientUnits="userSpaceOnUse">
<stop stop-color="#D40000"/>
<stop offset="1" stop-color="#6E0000"/>
</linearGradient>
<clipPath id="clip0_35_126">
<rect width="275" height="60" fill="white" transform="translate(0 135)"/>
</clipPath>
<clipPath id="clip1_35_126">
<rect width="275" height="111" fill="white"/>
</clipPath>
<clipPath id="clip2_35_126">
<rect width="275" height="73" fill="white" transform="translate(0 219)"/>
</clipPath>
</defs>
</svg>
